<svg xmlns="http://www.w3.org/2000/svg" viewBox="0 0 220.5 220.5"><defs><style>.cls-1{fill:#d7e057;}.cls-2{fill:#3a312a;}.cls-3{fill:#f16c7a;}.cls-4{fill:#fce8cb;}.cls-5{fill:#b9c239;}</style></defs><g id="Layer_2" data-name="Layer 2"><g id="Layer_1-2" data-name="Layer 1"><path class="cls-1" d="M67,55.8a69.45,69.45,0,1,0,11.47-7.42Z"/><path class="cls-2" d="M110.25,181.33A71.07,71.07,0,0,1,66,54.62,1.5,1.5,0,0,1,67.9,57a67.9,67.9,0,1,0,11.22-7.26A1.5,1.5,0,0,1,77.75,47a70.33,70.33,0,0,1,32.5-7.87,71.08,71.08,0,1,1,0,142.16Z"/><path class="cls-2" d="M110.25,28.51a1.5,1.5,0,0,1-1.5-1.5V1.5a1.5,1.5,0,0,1,3,0V27A1.5,1.5,0,0,1,110.25,28.51Z"/><path class="cls-2" d="M110.25,220.5a1.5,1.5,0,0,1-1.5-1.5V193.49a1.5,1.5,0,0,1,3,0V219A1.5,1.5,0,0,1,110.25,220.5Z"/><path class="cls-2" d="M169.11,52.89a1.45,1.45,0,0,1-1.06-.44,1.49,1.49,0,0,1,0-2.12l18-18a1.5,1.5,0,1,1,2.12,2.12l-18,18A1.47,1.47,0,0,1,169.11,52.89Z"/><path class="cls-2" d="M33.35,188.65a1.5,1.5,0,0,1-1.06-2.56l18-18a1.5,1.5,0,0,1,2.12,2.12l-18,18A1.49,1.49,0,0,1,33.35,188.65Z"/><path class="cls-2" d="M219,111.75H193.49a1.5,1.5,0,0,1,0-3H219a1.5,1.5,0,0,1,0,3Z"/><path class="cls-2" d="M27,111.75H1.5a1.5,1.5,0,0,1,0-3H27a1.5,1.5,0,0,1,0,3Z"/><path class="cls-2" d="M187.15,188.65a1.49,1.49,0,0,1-1.06-.44l-18-18a1.5,1.5,0,0,1,2.12-2.12l18,18a1.5,1.5,0,0,1-1.06,2.56Z"/><path class="cls-2" d="M51.39,52.89a1.47,1.47,0,0,1-1.06-.44l-18-18a1.5,1.5,0,1,1,2.12-2.12l18,18a1.49,1.49,0,0,1,0,2.12A1.45,1.45,0,0,1,51.39,52.89Z"/><path class="cls-2" d="M142.9,35.19a1.43,1.43,0,0,1-.59-.13,1.5,1.5,0,0,1-.79-2l6.21-14.55a1.5,1.5,0,1,1,2.76,1.17l-6.21,14.55A1.5,1.5,0,0,1,142.9,35.19Z"/><path class="cls-2" d="M71.39,202.87a1.56,1.56,0,0,1-.59-.12,1.51,1.51,0,0,1-.79-2l6.21-14.55A1.5,1.5,0,0,1,79,187.4L72.77,202A1.51,1.51,0,0,1,71.39,202.87Z"/><path class="cls-2" d="M201.36,150.61a1.51,1.51,0,0,1-.58-.12l-14.55-6.21a1.5,1.5,0,0,1,1.17-2.76L202,147.73a1.5,1.5,0,0,1-.59,2.88Z"/><path class="cls-2" d="M33.68,79.1A1.51,1.51,0,0,1,33.1,79L18.55,72.77A1.5,1.5,0,1,1,19.72,70l14.55,6.21a1.5,1.5,0,0,1-.59,2.88Z"/><path class="cls-2" d="M187.48,80.7a1.5,1.5,0,0,1-.56-2.89l14.68-5.9a1.5,1.5,0,1,1,1.11,2.78L188,80.59A1.55,1.55,0,0,1,187.48,80.7Z"/><path class="cls-2" d="M18.34,148.7a1.5,1.5,0,0,1-.55-2.89l14.67-5.9a1.5,1.5,0,0,1,1.12,2.78l-14.68,5.9A1.36,1.36,0,0,1,18.34,148.7Z"/><path class="cls-2" d="M147.2,203.66a1.5,1.5,0,0,1-1.39-.95L139.91,188a1.5,1.5,0,1,1,2.78-1.12l5.9,14.68a1.5,1.5,0,0,1-.83,2A1.55,1.55,0,0,1,147.2,203.66Z"/><path class="cls-2" d="M79.2,34.52a1.49,1.49,0,0,1-1.39-.94L71.91,18.9a1.5,1.5,0,1,1,2.78-1.11l5.9,14.67a1.5,1.5,0,0,1-.83,1.95A1.36,1.36,0,0,1,79.2,34.52Z"/><path class="cls-3" d="M114.58,102.13a2.72,2.72,0,0,0,0,.28l-8.68,0c0-.11,0-.22,0-.32a17.29,17.29,0,0,0-1.68-8.08h12A17.29,17.29,0,0,0,114.58,102.13Z"/><path class="cls-2" d="M105.91,104a1.51,1.51,0,0,1-1.11-.49,1.48,1.48,0,0,1-.38-1.17v-.16a16,16,0,0,0-1.51-7.39,1.51,1.51,0,0,1,0-1.47,1.49,1.49,0,0,1,1.28-.72h12a1.49,1.49,0,0,1,1.28.72,1.51,1.51,0,0,1,0,1.47,16,16,0,0,0-1.51,7.39v.11a1.54,1.54,0,0,1-1.49,1.67l-8.67,0Zm.58-8.4a20.21,20.21,0,0,1,.91,5.39l5.7,0a20.05,20.05,0,0,1,.91-5.36Z"/><path class="cls-4" d="M89.8,138.6a20.45,20.45,0,0,0,40.9,0Z"/><path class="cls-2" d="M110.25,160.38a22,22,0,0,1-22-21.77,1.49,1.49,0,0,1,.43-1.07,1.52,1.52,0,0,1,1.07-.44h40.9a1.52,1.52,0,0,1,1.07.44,1.49,1.49,0,0,1,.43,1.07A22,22,0,0,1,110.25,160.38ZM91.37,140.1a19,19,0,0,0,37.76,0Z"/><path class="cls-3" d="M177.67,91l-9.06,4.07a11.86,11.86,0,0,0-6.41-6.49l12.12-5.43a4.18,4.18,0,0,1,1.69-.34A4.26,4.26,0,0,1,177.67,91Z"/><path class="cls-2" d="M168.61,96.55a1.5,1.5,0,0,1-.55-.11,1.47,1.47,0,0,1-.83-.83,10.44,10.44,0,0,0-5.65-5.68,1.5,1.5,0,0,1,0-2.74l12.12-5.43a5.77,5.77,0,1,1,4.57,10.6l-9.05,4A1.51,1.51,0,0,1,168.61,96.55Zm-3.12-7.82a13,13,0,0,1,3.85,4.35l7.72-3.46h0A2.78,2.78,0,0,0,178.55,86,2.76,2.76,0,0,0,176,84.29a2.61,2.61,0,0,0-1.08.22Z"/><path class="cls-3" d="M58.29,88.56a11.88,11.88,0,0,0-6.4,6.49L42.83,91a4.26,4.26,0,0,1,1.66-8.19,4.18,4.18,0,0,1,1.69.34Z"/><path class="cls-2" d="M51.89,96.55a1.51,1.51,0,0,1-.62-.14l-9.06-4.06a5.77,5.77,0,0,1,4.56-10.6L58.9,87.19a1.5,1.5,0,0,1,0,2.74,10.49,10.49,0,0,0-5.64,5.68,1.47,1.47,0,0,1-.83.83A1.5,1.5,0,0,1,51.89,96.55ZM44.5,84.29A2.76,2.76,0,0,0,42,86a2.78,2.78,0,0,0,1.47,3.64l7.74,3.47A12.71,12.71,0,0,1,55,88.73L45.56,84.5A2.61,2.61,0,0,0,44.5,84.29Z"/><path class="cls-3" d="M142.21,86c-15.26,0-27.63.83-27.63,16.09a27.63,27.63,0,1,0,55.25,0C169.83,86.86,157.46,86,142.21,86Z"/><path class="cls-2" d="M142.21,131.25a29.15,29.15,0,0,1-29.13-29.13c0-17.59,16.15-17.59,29.13-17.59s29.12,0,29.12,17.59A29.15,29.15,0,0,1,142.21,131.25Zm0-43.72c-15.79,0-26.13,1-26.13,14.59a26.13,26.13,0,1,0,52.25,0C168.33,88.54,158,87.53,142.21,87.53Z"/><path class="cls-3" d="M71.22,86.15c-11.83.52-20.55,3.16-20.55,16a27.63,27.63,0,1,0,55.25,0c0-12.81-8.72-15.45-20.56-16H71.22Z"/><path class="cls-2" d="M78.29,131.25a29.15,29.15,0,0,1-29.12-29.13c0-14.51,10.56-17,22-17.47a1.5,1.5,0,1,1,.13,3c-15.92.69-19.11,6-19.11,14.47a26.13,26.13,0,1,0,52.25,0c0-11.35-7.31-14-19.12-14.47H85a1.5,1.5,0,0,1,0-3h.41c11.49.5,22.06,3,22.06,17.47A29.15,29.15,0,0,1,78.29,131.25Z"/><path class="cls-5" d="M176.19,93.29l-5.72,2.57a21.23,21.23,0,0,1,.86,6.26,29,29,0,0,1-8.63,20.68,69.63,69.63,0,0,1-53.94,55.51l1.49,0a68.1,68.1,0,0,0,65.94-85Z"/><path class="cls-5" d="M172.34,82.38l-10.19,4.56a20.81,20.81,0,0,0-2.66-.91,69.66,69.66,0,0,0-50.71-43.84l1.47,0A68.16,68.16,0,0,1,172.34,82.38Z"/></g></g></svg>