<svg xmlns="http://www.w3.org/2000/svg" viewBox="0 0 220 220"><defs><style>.cls-1{fill:#d7e057;}.cls-2{fill:#3a312a;}.cls-3{fill:#b9c239;}</style></defs><g id="Layer_2" data-name="Layer 2"><g id="Layer_1-2" data-name="Layer 1"><path class="cls-1" d="M28.64,42.09c-28.5,33-34.59,80.6-11.18,120.32,29.59,50.21,96.55,69.31,150.41,42.91a109.71,109.71,0,0,0,48.83-46.54c1.35-2.51-1.27-5.28-4-4.31-40.42,14.12-86.67-1.71-107.75-38.71S95.19,33.36,129.77,9a3.06,3.06,0,0,0-1.58-5.57A117.52,117.52,0,0,0,62.32,15.71,115,115,0,0,0,48.8,23.88Z"/><path class="cls-2" d="M116.43,220a122.72,122.72,0,0,1-33.71-4.74c-29-8.28-53.14-26.57-67.83-51.49C-8.54,124-4,75.56,26.37,40.32a3,3,0,0,1,4.13-.39,2.68,2.68,0,0,1,.41,3.92C2.06,77.31-2.22,123.31,20,161.05c20,33.85,57.91,53.22,96.71,53.22a112.88,112.88,0,0,0,49.79-11.43,106.58,106.58,0,0,0,47.56-45.33c0-.07.1-.17-.05-.33a.3.3,0,0,0-.37-.09c-42.11,14.71-90-2.49-111.35-40S92,32.14,128,6.76a.26.26,0,0,0,.11-.34.26.26,0,0,0-.26-.22,114.42,114.42,0,0,0-64.16,12,113,113,0,0,0-13.16,8,3,3,0,0,1-4.11-.59,2.7,2.7,0,0,1,.61-3.9,119.19,119.19,0,0,1,13.87-8.38A120.55,120.55,0,0,1,128.51.65,6.09,6.09,0,0,1,133.81,5a5.72,5.72,0,0,1-2.29,6.28c-33.7,23.74-44,68.1-24,103.19s64.77,51.18,104.15,37.42a6.42,6.42,0,0,1,6.8,1.63,5.61,5.61,0,0,1,.89,6.56,112.33,112.33,0,0,1-50.1,47.76A119.91,119.91,0,0,1,116.43,220Z"/><path class="cls-3" d="M214.09,157.51a106.71,106.71,0,0,1-47.57,45.33A114,114,0,0,1,101,213.21a112,112,0,0,0,34.17-10.37A106.87,106.87,0,0,0,180,162.27a93.83,93.83,0,0,0,33.66-5.19.31.31,0,0,1,.37.1C214.17,157.34,214.13,157.44,214.09,157.51Z"/></g></g></svg>