<svg xmlns="http://www.w3.org/2000/svg" viewBox="0 0 225 194.93"><defs><style>.cls-1{fill:#8ac6dd;}.cls-2{fill:#3a312a;}.cls-3{fill:#d7e057;}.cls-4{fill:#6ca8bf;}</style></defs><g id="Layer_2" data-name="Layer 2"><g id="Layer_1-2" data-name="Layer 1"><path class="cls-1" d="M62.9,146.85H172.56v0a51.64,51.64,0,0,0-.7-103.27c-1.27,0-2.52.06-3.76.15A57.72,57.72,0,0,0,54.78,59.22c0,.44,0,.87,0,1.31a43.7,43.7,0,1,0-9.61,86.32H62.9Z"/><path class="cls-2" d="M172.56,148.35H62.9a1.5,1.5,0,0,1,0-3H172.33l.21,0a50.14,50.14,0,0,0-.68-100.27c-1.11,0-2.27,0-3.66.15a1.5,1.5,0,0,1-1.55-1.09A56.22,56.22,0,0,0,56.28,59.22c0,.26,0,.52,0,.78v.49a1.49,1.49,0,0,1-.55,1.2,1.51,1.51,0,0,1-1.28.3,42.2,42.2,0,1,0-9.28,83.36h4.9a1.5,1.5,0,0,1,0,3H45.2a45.2,45.2,0,1,1,8.08-89.66A59.22,59.22,0,0,1,169.2,42.14c1,0,1.82-.08,2.66-.08a53.14,53.14,0,0,1,.95,106.27Z"/><circle class="cls-3" cx="112.5" cy="131.8" r="40.64" transform="translate(-30.1 230.26) rotate(-84.14)"/><path class="cls-2" d="M112.5,173.94a42.14,42.14,0,1,1,42.14-42.14A42.18,42.18,0,0,1,112.5,173.94Zm0-81.28a39.14,39.14,0,1,0,39.14,39.14A39.19,39.19,0,0,0,112.5,92.66Z"/><path class="cls-2" d="M112.25,79.82a1.5,1.5,0,0,1-1.5-1.5V70.18a1.5,1.5,0,0,1,3,0v8.14A1.5,1.5,0,0,1,112.25,79.82Z"/><path class="cls-2" d="M112.75,194.93a1.51,1.51,0,0,1-1.5-1.5v-8.15a1.5,1.5,0,1,1,3,0v8.15A1.5,1.5,0,0,1,112.75,194.93Z"/><path class="cls-2" d="M150.13,95.31a1.53,1.53,0,0,1-1.06-.44,1.51,1.51,0,0,1,0-2.12L154.83,87A1.51,1.51,0,0,1,157,89.11l-5.77,5.76A1.49,1.49,0,0,1,150.13,95.31Z"/><path class="cls-2" d="M69.1,177.06a1.53,1.53,0,0,1-1.06-.44,1.51,1.51,0,0,1,0-2.12l5.77-5.77a1.5,1.5,0,0,1,2.12,2.13l-5.76,5.76A1.53,1.53,0,0,1,69.1,177.06Z"/><path class="cls-2" d="M174.12,133.05H166a1.5,1.5,0,1,1,0-3h8.14a1.5,1.5,0,0,1,0,3Z"/><path class="cls-2" d="M59,133.56H50.88a1.5,1.5,0,1,1,0-3H59a1.5,1.5,0,1,1,0,3Z"/><path class="cls-2" d="M156.26,176.7a1.49,1.49,0,0,1-1.06-.44l-5.77-5.77a1.5,1.5,0,0,1,2.12-2.12l5.77,5.77a1.51,1.51,0,0,1,0,2.12A1.53,1.53,0,0,1,156.26,176.7Z"/><path class="cls-2" d="M74.51,95.67a1.49,1.49,0,0,1-1.06-.44l-5.77-5.76a1.51,1.51,0,0,1,2.13-2.13l5.76,5.77a1.51,1.51,0,0,1,0,2.12A1.53,1.53,0,0,1,74.51,95.67Z"/><path class="cls-4" d="M222,95.21a50.33,50.33,0,0,1-49.46,50.13l-.21,0h-17l.09-.08a50.14,50.14,0,0,0-2.52-100.21c-1.11,0-2.27,0-3.66.14a1.5,1.5,0,0,1-1.55-1.09A56.43,56.43,0,0,0,103,3.81a56.23,56.23,0,0,1,63.67,40.31,1.5,1.5,0,0,0,1.55,1.09c1.39-.1,2.55-.14,3.66-.14A50.19,50.19,0,0,1,222,95.21Z"/></g></g></svg>