<svg xmlns="http://www.w3.org/2000/svg" viewBox="0 0 225 199.35"><defs><style>.cls-1{fill:#8ac6dd;}.cls-2{fill:#3a312a;}.cls-3{fill:#6ca8bf;}.cls-4{fill:#d7e057;}.cls-5{fill:#b9c239;}</style></defs><g id="Layer_2" data-name="Layer 2"><g id="Layer_1-2" data-name="Layer 1"><path class="cls-1" d="M62.9,146.85H172.56v0a51.64,51.64,0,0,0-.7-103.27c-1.27,0-2.52.06-3.76.15A57.72,57.72,0,0,0,54.78,59.22c0,.44,0,.87,0,1.31a43.7,43.7,0,1,0-9.61,86.32H62.9Z"/><path class="cls-2" d="M172.56,148.35H62.9a1.5,1.5,0,0,1,0-3H172.33l.21,0a50.14,50.14,0,0,0-.68-100.27c-1.11,0-2.27,0-3.66.15a1.5,1.5,0,0,1-1.55-1.09A56.22,56.22,0,0,0,56.28,59.22c0,.26,0,.52,0,.78v.49a1.49,1.49,0,0,1-.55,1.2,1.51,1.51,0,0,1-1.28.3,42.2,42.2,0,1,0-9.28,83.36h4.9a1.5,1.5,0,0,1,0,3H45.2a45.2,45.2,0,1,1,8.08-89.66A59.22,59.22,0,0,1,169.2,42.14c1,0,1.82-.08,2.66-.08a53.14,53.14,0,0,1,.95,106.27Z"/><path class="cls-3" d="M222,95.21a50.33,50.33,0,0,1-49.46,50.13l-.21,0h-17l.09-.08a50.14,50.14,0,0,0-2.52-100.21c-1.11,0-2.27,0-3.66.14a1.5,1.5,0,0,1-1.55-1.09A56.43,56.43,0,0,0,103,3.81a56.23,56.23,0,0,1,63.67,40.31,1.5,1.5,0,0,0,1.55,1.09c1.39-.1,2.55-.14,3.66-.14A50.19,50.19,0,0,1,222,95.21Z"/><path class="cls-4" d="M82,103.65a57.67,57.67,0,1,0,96,62.77,1.67,1.67,0,0,0-2.07-2.32,44.94,44.94,0,0,1-42.3-78.24,1.67,1.67,0,0,0-.81-3,57.57,57.57,0,0,0-40.51,11Z"/><path class="cls-2" d="M126.75,199.35a59.78,59.78,0,0,1-17.2-2.55,59.08,59.08,0,0,1-28.76-94.1,1.5,1.5,0,0,1,2.32,1.9,55.9,55.9,0,0,0-5.56,63,56.59,56.59,0,0,0,49.36,28.62,55.72,55.72,0,0,0,49.68-30.52.14.14,0,0,0,0-.18.16.16,0,0,0-.19-.05,46.44,46.44,0,0,1-43.71-80.86.14.14,0,0,0,.06-.18.15.15,0,0,0-.14-.12,55.79,55.79,0,0,0-32.74,6.44,55,55,0,0,0-6.72,4.28,1.5,1.5,0,0,1-1.79-2.41,59.77,59.77,0,0,1,7.08-4.51,58.78,58.78,0,0,1,34.5-6.78,3.17,3.17,0,0,1,1.53,5.69,43.44,43.44,0,0,0,40.89,75.63,3.18,3.18,0,0,1,3.93,4.41,59.11,59.11,0,0,1-52.52,32.25Z"/><path class="cls-5" d="M176.6,165.74a55.8,55.8,0,0,1-57.72,30,55,55,0,0,0,17.44-5.58A55.7,55.7,0,0,0,159.2,168.3a45.72,45.72,0,0,0,17.18-2.79.16.16,0,0,1,.19.05C176.64,165.65,176.62,165.7,176.6,165.74Z"/></g></g></svg>