<svg xmlns="http://www.w3.org/2000/svg" viewBox="0 0 220 220"><defs><style>.cls-1{fill:#d7e057;}.cls-2{fill:#3a312a;}.cls-3{fill:#b9c239;}.cls-4{fill:#8ac6dd;}.cls-5{fill:#6ca8bf;}</style></defs><g id="Layer_2" data-name="Layer 2"><g id="Layer_1-2" data-name="Layer 1"><path class="cls-1" d="M27.31,42.7C19.41,68,25,98.3,43.62,118.77c23.48,25.88,59.53,26.19,81,.69,8.72-10.37,13.8-23.39,15.35-37,.2-1.77-1.57-3-2.75-2C120.07,96.07,94.7,94.24,77.74,75S58.12,25.93,70.54,5c.86-1.44-.28-3.48-1.77-3.17C57.65,4.19,47.18,10.46,38.93,20.68A61.75,61.75,0,0,0,33.83,28Z"/><path class="cls-2" d="M102.21,137.32a50.6,50.6,0,0,1-17.27,2.85c-15.64-.13-30.67-7.28-42.32-20.12C24,99.57,17.46,68.93,25.88,42a1.38,1.38,0,0,1,1.94-1,2,2,0,0,1,.91,2.35C20.73,69,27,98.05,44.62,117.49c15.84,17.45,37.81,22.89,56.7,16.24a51,51,0,0,0,22.16-15.57c8.22-9.77,13.39-22.25,15-36.08a.2.2,0,0,0-.09-.2.13.13,0,0,0-.19,0C120.32,98.17,93.91,95.76,76.73,76.3S56.34,25.72,69.29,3.91a.21.21,0,0,0,0-.23c-.06-.12-.12-.1-.17-.09C57.88,6,47.83,12.32,40.05,22a62.87,62.87,0,0,0-5,7.16,1.34,1.34,0,0,1-2.1.35A2,2,0,0,1,32.57,27,64.12,64.12,0,0,1,37.8,19.4C46,9.26,56.58,2.58,68.42.06a3.16,3.16,0,0,1,3.36,1.75,4.31,4.31,0,0,1,0,4.26c-12.11,20.4-9.11,49.51,7,67.71S119.54,94.23,136.22,79a2.77,2.77,0,0,1,3.6-.16,4.24,4.24,0,0,1,1.63,3.89c-1.66,14.58-7.1,27.72-15.76,38A54.31,54.31,0,0,1,102.21,137.32Z"/><path class="cls-3" d="M138.44,82.08c-1.57,13.83-6.74,26.31-15,36.08a50.25,50.25,0,0,1-30,17.62,52.41,52.41,0,0,0,14.75-12.25,66.58,66.58,0,0,0,14.49-32.68,41.15,41.15,0,0,0,15.44-9,.14.14,0,0,1,.2,0A.18.18,0,0,1,138.44,82.08Z"/><path class="cls-2" d="M166,127.13a1.54,1.54,0,0,1-1.46-1.61V116.8a1.47,1.47,0,1,1,2.93,0v8.72A1.55,1.55,0,0,1,166,127.13Z"/><path class="cls-4" d="M61.5,186.46H168.72v0c27.57-.4,49.81-25,49.81-55.28,0-30.55-22.6-55.3-50.49-55.3-1.24,0-2.46.06-3.68.16C157.74,50,135.92,30.81,110,30.81c-31.17,0-56.44,27.68-56.44,61.81,0,.47,0,.93,0,1.4a39.41,39.41,0,0,0-9.4-1.15c-23.59,0-42.72,20.95-42.72,46.79s19.13,46.8,42.72,46.8H61.5Z"/><path class="cls-2" d="M168.72,188.06H44.19C19.83,188.06,0,166.35,0,139.66s19.83-48.4,44.19-48.4a40.65,40.65,0,0,1,7.91.79c.28-34.71,26.15-62.84,57.9-62.84,25.5,0,48.13,18.49,55.44,45.12.93,0,1.78-.08,2.6-.08,28.65,0,52,25.53,52,56.91C220,162,197.13,187.5,169,188A1,1,0,0,1,168.72,188.06ZM44.19,94.48c-22.75,0-41.26,20.27-41.26,45.18s18.51,45.19,41.26,45.19H168.5l.2,0c26.67-.39,48.37-24.47,48.37-53.67,0-29.61-22-53.7-49-53.7-1.08,0-2.22.05-3.57.16A1.5,1.5,0,0,1,163,76.45c-6.59-25.93-28.36-44-52.95-44-30.31,0-55,27-55,60.2,0,.28,0,.55,0,.83V94a1.66,1.66,0,0,1-.54,1.27,1.35,1.35,0,0,1-1.25.33A37.86,37.86,0,0,0,44.19,94.48Z"/><path class="cls-4" d="M51.2,218.39h65.16c17.92-.26,32.38-16.25,32.38-35.94,0-19.85-14.7-35.95-32.83-35.95-.8,0-1.6,0-2.39.1-4.31-16.94-18.49-29.38-35.34-29.38-20.27,0-36.69,18-36.69,40.18,0,.3,0,.6,0,.91a25.25,25.25,0,0,0-6.11-.75c-15.34,0-27.78,13.62-27.78,30.42s12.44,30.42,27.78,30.42H51.2Z"/><path class="cls-2" d="M116.36,220H51.2a1.61,1.61,0,0,1,0-3.21h65.14c17-.25,30.93-15.66,30.93-34.34,0-18.94-14.07-34.35-31.36-34.35-.69,0-1.41,0-2.28.11a1.48,1.48,0,0,1-1.52-1.18c-4.23-16.61-18.18-28.21-33.93-28.21C58.76,118.81,43,136.12,43,157.39c0,.17,0,.35,0,.52v.35a1.65,1.65,0,0,1-.53,1.28,1.41,1.41,0,0,1-1.25.33,24.28,24.28,0,0,0-5.79-.71c-14.51,0-26.31,12.92-26.31,28.81s11.8,28.82,26.31,28.82h2.38a1.61,1.61,0,0,1,0,3.21H35.4c-16.13,0-29.25-14.37-29.25-32s13.12-32,29.25-32a26.83,26.83,0,0,1,4.63.41c.51-22.56,17.42-40.75,38.15-40.75,16.67,0,31.47,12,36.42,29.32.46,0,.89,0,1.31,0,18.91,0,34.3,16.85,34.3,37.56,0,20.36-15.08,37.16-33.65,37.54Z"/><path class="cls-5" d="M217.07,131.15c0,29.22-21.7,53.29-48.36,53.68l-.21,0H151.84a.76.76,0,0,1,.09-.09c25.83-1.42,46.56-25.07,46.56-53.62,0-29.6-22-53.69-49-53.69-1.08,0-2.22.05-3.58.15a1.46,1.46,0,0,1-1.51-1.16c-5.75-22.61-23.05-39.27-43.68-43.17a51.1,51.1,0,0,1,9.31-.86c24.58,0,46.36,18.1,52.95,44a1.46,1.46,0,0,0,1.51,1.16c1.36-.1,2.5-.15,3.58-.15C195.08,77.46,217.07,101.55,217.07,131.15Z"/></g></g></svg>