<svg xmlns="http://www.w3.org/2000/svg" viewBox="0 0 237.63 205.98"><defs><style>.cls-1{fill:#d7e057;}.cls-2{fill:#3a312a;}.cls-3{fill:#8ac6dd;}.cls-4{fill:#6ca8bf;}</style></defs><g id="Layer_2" data-name="Layer 2"><g id="Layer_1-2" data-name="Layer 1"><circle class="cls-1" cx="63.12" cy="63.13" r="40.64" transform="translate(-6.11 119.48) rotate(-84.14)"/><path class="cls-2" d="M63.12,105.27a42.15,42.15,0,1,1,42.15-42.15A42.2,42.2,0,0,1,63.12,105.27Zm0-81.29a39.15,39.15,0,1,0,39.15,39.14A39.19,39.19,0,0,0,63.12,24Z"/><path class="cls-2" d="M62.87,11.15a1.5,1.5,0,0,1-1.5-1.5V1.5a1.5,1.5,0,1,1,3,0V9.65A1.5,1.5,0,0,1,62.87,11.15Z"/><path class="cls-2" d="M63.38,126.25a1.5,1.5,0,0,1-1.5-1.5V116.6a1.5,1.5,0,1,1,3,0v8.15A1.5,1.5,0,0,1,63.38,126.25Z"/><path class="cls-2" d="M100.76,26.63a1.5,1.5,0,0,1-1.06-2.56l5.76-5.76a1.5,1.5,0,1,1,2.12,2.12l-5.76,5.76A1.51,1.51,0,0,1,100.76,26.63Z"/><path class="cls-2" d="M19.73,108.38a1.51,1.51,0,0,1-1.06-.44,1.49,1.49,0,0,1,0-2.12l5.76-5.76a1.5,1.5,0,1,1,2.12,2.12l-5.76,5.76A1.51,1.51,0,0,1,19.73,108.38Z"/><path class="cls-2" d="M124.75,64.37H116.6a1.5,1.5,0,1,1,0-3h8.15a1.5,1.5,0,1,1,0,3Z"/><path class="cls-2" d="M9.65,64.88H1.5a1.5,1.5,0,1,1,0-3H9.65a1.5,1.5,0,0,1,0,3Z"/><path class="cls-2" d="M106.88,108a1.51,1.51,0,0,1-1.06-.44l-5.76-5.76a1.5,1.5,0,1,1,2.12-2.12l5.76,5.76a1.49,1.49,0,0,1,0,2.12A1.51,1.51,0,0,1,106.88,108Z"/><path class="cls-2" d="M25.13,27a1.47,1.47,0,0,1-1.06-.44l-5.76-5.76a1.5,1.5,0,1,1,2.12-2.12l5.76,5.76a1.49,1.49,0,0,1,0,2.12A1.45,1.45,0,0,1,25.13,27Z"/><path class="cls-3" d="M75.52,158.18H185.18v0a51.64,51.64,0,0,0-.7-103.27c-1.26,0-2.52.06-3.76.15A57.72,57.72,0,0,0,67.4,70.54c0,.44,0,.88,0,1.31a44.18,44.18,0,0,0-9.62-1.07,43.7,43.7,0,0,0,0,87.4h17.7Z"/><path class="cls-2" d="M185.18,159.68H75.52a1.5,1.5,0,1,1,0-3H185a.75.75,0,0,1,.21,0,50.14,50.14,0,0,0-.68-100.27c-1.1,0-2.26,0-3.65.14a1.48,1.48,0,0,1-1.55-1.09A56.22,56.22,0,0,0,68.9,70.54c0,.26,0,.52,0,.78l0,.5a1.51,1.51,0,0,1-1.83,1.5,42.2,42.2,0,1,0-9.29,83.36h4.91a1.5,1.5,0,1,1,0,3H57.82A45.2,45.2,0,1,1,65.91,70,59.22,59.22,0,0,1,181.83,53.46c.95-.05,1.81-.07,2.65-.07a53.13,53.13,0,0,1,1,106.26A1,1,0,0,1,185.18,159.68Z"/><path class="cls-3" d="M58,195.13a9.36,9.36,0,0,1-18.71,0c0-5.17,5.95-17.71,9.36-17.71S58,190,58,195.13Z"/><path class="cls-2" d="M48.6,206a10.87,10.87,0,0,1-10.86-10.85c0-5.28,6-19.21,10.86-19.21,2.86,0,5.57,4.21,7.34,7.74,1.62,3.23,3.51,8.17,3.51,11.47A10.87,10.87,0,0,1,48.6,206Zm0-27.06c-2.13.18-7.86,11.15-7.86,16.21a7.86,7.86,0,0,0,15.71,0C56.45,189.64,50.45,178.92,48.6,178.92Z"/><path class="cls-3" d="M109,195.13a9.36,9.36,0,0,1-18.71,0c0-5.17,5.95-17.71,9.36-17.71S109,190,109,195.13Z"/><path class="cls-2" d="M99.62,206a10.87,10.87,0,0,1-10.86-10.85c0-5.28,6-19.21,10.86-19.21,2.86,0,5.57,4.21,7.34,7.74,1.62,3.23,3.51,8.17,3.51,11.47A10.87,10.87,0,0,1,99.62,206Zm0-27.06c-2.13.18-7.86,11.15-7.86,16.21a7.86,7.86,0,0,0,15.71,0C107.47,189.64,101.47,178.92,99.62,178.92Z"/><path class="cls-3" d="M160,195.13a9.36,9.36,0,0,1-18.71,0c0-5.17,5.95-17.71,9.35-17.71C154.18,177.42,160,190,160,195.13Z"/><path class="cls-2" d="M150.63,206a10.87,10.87,0,0,1-10.85-10.85c0-5.28,6-19.21,10.85-19.21,2.87,0,5.58,4.21,7.35,7.74,1.62,3.23,3.51,8.17,3.51,11.47A10.87,10.87,0,0,1,150.63,206Zm0-27.06c-2.12.18-7.85,11.15-7.85,16.21a7.86,7.86,0,0,0,15.71,0C158.49,189.64,152.49,178.92,150.63,178.92Z"/><path class="cls-3" d="M211,195.13a9.36,9.36,0,0,1-18.71,0c0-5.17,5.95-17.71,9.35-17.71S211,190,211,195.13Z"/><path class="cls-2" d="M201.65,206a10.87,10.87,0,0,1-10.85-10.85c0-5.28,6-19.21,10.85-19.21,2.87,0,5.58,4.21,7.35,7.74,1.62,3.23,3.51,8.17,3.51,11.47A10.87,10.87,0,0,1,201.65,206Zm0-27.06c-2.12.18-7.85,11.15-7.85,16.21a7.86,7.86,0,0,0,15.71,0C209.51,189.64,203.51,178.92,201.65,178.92Z"/><path class="cls-4" d="M234.62,106.53a50.32,50.32,0,0,1-49.45,50.13l-.22,0h-17a.73.73,0,0,1,.09-.08,50.14,50.14,0,0,0-2.52-100.21c-1.11,0-2.27,0-3.66.14a1.51,1.51,0,0,1-1.56-1.09,56.42,56.42,0,0,0-44.66-40.31,56.22,56.22,0,0,1,63.66,40.31,1.51,1.51,0,0,0,1.56,1.09c1.39-.1,2.55-.14,3.66-.14A50.18,50.18,0,0,1,234.62,106.53Z"/></g></g></svg>