<svg xmlns="http://www.w3.org/2000/svg" viewBox="0 0 225 207.64"><defs><style>.cls-1{fill:#d7e057;}.cls-2{fill:#3a312a;}.cls-3{fill:#b9c239;}.cls-4{fill:#8ac6dd;}.cls-5{fill:#6ca8bf;}</style></defs><g id="Layer_2" data-name="Layer 2"><g id="Layer_1-2" data-name="Layer 1"><path class="cls-1" d="M21,22.64a57.67,57.67,0,1,0,96,62.76,1.67,1.67,0,0,0-2.07-2.32A44.94,44.94,0,0,1,72.56,4.84a1.67,1.67,0,0,0-.81-3A57.44,57.44,0,0,0,38.13,8.45a58.49,58.49,0,0,0-6.89,4.4Z"/><path class="cls-2" d="M65.75,118.33a59.44,59.44,0,0,1-17.2-2.55A59.07,59.07,0,0,1,19.79,21.69a1.5,1.5,0,1,1,2.32,1.9,55.88,55.88,0,0,0-5.56,63,56.58,56.58,0,0,0,49.36,28.63,55.76,55.76,0,0,0,49.68-30.53.14.14,0,0,0,0-.18.16.16,0,0,0-.19-.05A46.44,46.44,0,0,1,71.67,3.64a.16.16,0,0,0,.06-.19.15.15,0,0,0-.14-.12A56.12,56.12,0,0,0,32.13,14.05a1.5,1.5,0,1,1-1.79-2.41,59.77,59.77,0,0,1,7.08-4.51A58.86,58.86,0,0,1,71.92.35a3.13,3.13,0,0,1,2.7,2.32,3.14,3.14,0,0,1-1.17,3.38,43.44,43.44,0,0,0,40.89,75.63,3.17,3.17,0,0,1,3.93,4.4,59.06,59.06,0,0,1-52.52,32.25Z"/><path class="cls-3" d="M115.6,84.72a55.8,55.8,0,0,1-57.72,30,55,55,0,0,0,17.44-5.58A55.7,55.7,0,0,0,98.2,87.28a45.72,45.72,0,0,0,17.18-2.79.16.16,0,0,1,.19.05C115.64,84.63,115.62,84.68,115.6,84.72Z"/><path class="cls-4" d="M62.9,159.83H172.56a51.64,51.64,0,0,0-.7-103.27c-1.27,0-2.52.06-3.76.15A57.72,57.72,0,0,0,54.78,72.2c0,.44,0,.87,0,1.31a43.7,43.7,0,1,0-9.61,86.32H62.9Z"/><path class="cls-2" d="M172.56,161.33H62.9a1.5,1.5,0,0,1,0-3H172.54a50.14,50.14,0,0,0-.68-100.27c-1.11,0-2.27,0-3.66.14a1.49,1.49,0,0,1-1.55-1.09A56.22,56.22,0,0,0,56.28,72.2c0,.26,0,.52,0,.78v.5A1.5,1.5,0,0,1,54.48,75a42.85,42.85,0,0,0-9.28-1,42.2,42.2,0,1,0,0,84.39h4.9a1.5,1.5,0,0,1,0,3H45.2a45.2,45.2,0,1,1,8.08-89.66A59.22,59.22,0,0,1,169.2,55.12c1,0,1.82-.07,2.66-.07a53.13,53.13,0,0,1,.95,106.26A1.06,1.06,0,0,1,172.56,161.33Z"/><path class="cls-4" d="M45.32,196.79a9.35,9.35,0,0,1-18.7,0c0-5.17,5.95-17.71,9.35-17.71S45.32,191.62,45.32,196.79Z"/><path class="cls-2" d="M36,207.64a10.87,10.87,0,0,1-10.85-10.85c0-5.29,6-19.21,10.85-19.21,2.86,0,5.57,4.21,7.34,7.74,1.62,3.23,3.51,8.17,3.51,11.47A10.87,10.87,0,0,1,36,207.64Zm0-27.06c-2.13.18-7.85,11.15-7.85,16.21a7.85,7.85,0,0,0,15.7,0C43.82,191.3,37.82,180.58,36,180.58Z"/><path class="cls-4" d="M96.34,196.79a9.35,9.35,0,0,1-18.7,0c0-5.17,6-17.71,9.35-17.71S96.34,191.62,96.34,196.79Z"/><path class="cls-2" d="M87,207.64a10.87,10.87,0,0,1-10.85-10.85c0-5.29,6-19.21,10.85-19.21,2.86,0,5.57,4.21,7.34,7.74,1.62,3.23,3.51,8.17,3.51,11.47A10.87,10.87,0,0,1,87,207.64Zm0-27.06c-2.13.18-7.85,11.15-7.85,16.21a7.85,7.85,0,0,0,15.7,0C94.84,191.3,88.84,180.58,87,180.58Z"/><path class="cls-4" d="M147.36,196.79a9.35,9.35,0,0,1-18.7,0c0-5.17,6-17.71,9.35-17.71S147.36,191.62,147.36,196.79Z"/><path class="cls-2" d="M138,207.64a10.87,10.87,0,0,1-10.85-10.85c0-5.29,6-19.21,10.85-19.21,2.86,0,5.57,4.21,7.34,7.74,1.62,3.23,3.51,8.17,3.51,11.47A10.87,10.87,0,0,1,138,207.64Zm0-27.06c-2.13.18-7.85,11.15-7.85,16.21a7.85,7.85,0,0,0,15.7,0C145.86,191.3,139.86,180.58,138,180.58Z"/><path class="cls-4" d="M198.38,196.79a9.35,9.35,0,0,1-18.7,0c0-5.17,5.95-17.71,9.35-17.71S198.38,191.62,198.38,196.79Z"/><path class="cls-2" d="M189,207.64a10.87,10.87,0,0,1-10.85-10.85c0-5.29,6-19.21,10.85-19.21,2.86,0,5.57,4.21,7.34,7.74,1.62,3.23,3.51,8.17,3.51,11.47A10.87,10.87,0,0,1,189,207.64Zm0-27.06c-2.13.18-7.85,11.15-7.85,16.21a7.85,7.85,0,0,0,15.7,0C196.88,191.3,190.88,180.58,189,180.58Z"/><path class="cls-5" d="M222,108.19a50.33,50.33,0,0,1-49.46,50.13l-.21,0h-17l.09-.08a50.14,50.14,0,0,0-2.52-100.21c-1.11,0-2.27,0-3.66.14a1.5,1.5,0,0,1-1.55-1.09A56.43,56.43,0,0,0,103,16.79,56.23,56.23,0,0,1,166.65,57.1a1.5,1.5,0,0,0,1.55,1.09c1.39-.1,2.55-.14,3.66-.14A50.19,50.19,0,0,1,222,108.19Z"/></g></g></svg>