<svg xmlns="http://www.w3.org/2000/svg" viewBox="0 0 241.13 209.42"><defs><style>.cls-1{fill:#3a312a;}.cls-2{fill:#d7e057;}.cls-3{fill:#8ac6dd;}.cls-4{fill:#6ca8bf;}</style></defs><g id="Layer_2" data-name="Layer 2"><g id="Layer_1-2" data-name="Layer 1"><path class="cls-1" d="M62.87,11.15a1.5,1.5,0,0,1-1.5-1.5V1.5a1.5,1.5,0,1,1,3,0V9.65A1.5,1.5,0,0,1,62.87,11.15Z"/><path class="cls-1" d="M100.76,26.63a1.5,1.5,0,0,1-1.06-2.56l5.76-5.76a1.5,1.5,0,1,1,2.12,2.12l-5.76,5.76A1.51,1.51,0,0,1,100.76,26.63Z"/><path class="cls-1" d="M25.13,27a1.47,1.47,0,0,1-1.06-.44l-5.76-5.76a1.5,1.5,0,1,1,2.12-2.12l5.76,5.76a1.49,1.49,0,0,1,0,2.12A1.45,1.45,0,0,1,25.13,27Z"/><circle class="cls-2" cx="63.12" cy="63.13" r="40.64" transform="translate(-6.11 119.48) rotate(-84.14)"/><path class="cls-1" d="M63.12,105.27a42.15,42.15,0,1,1,42.15-42.15A42.2,42.2,0,0,1,63.12,105.27Zm0-81.29a39.15,39.15,0,1,0,39.15,39.14A39.19,39.19,0,0,0,63.12,24Z"/><path class="cls-1" d="M63.38,126.25a1.5,1.5,0,0,1-1.5-1.5V116.6a1.5,1.5,0,1,1,3,0v8.15A1.5,1.5,0,0,1,63.38,126.25Z"/><path class="cls-1" d="M19.73,108.38a1.51,1.51,0,0,1-1.06-.44,1.49,1.49,0,0,1,0-2.12l5.76-5.76a1.5,1.5,0,1,1,2.12,2.12l-5.76,5.76A1.51,1.51,0,0,1,19.73,108.38Z"/><path class="cls-1" d="M124.75,64.37H116.6a1.5,1.5,0,1,1,0-3h8.15a1.5,1.5,0,1,1,0,3Z"/><path class="cls-1" d="M9.65,64.88H1.5a1.5,1.5,0,1,1,0-3H9.65a1.5,1.5,0,0,1,0,3Z"/><path class="cls-1" d="M106.88,108a1.51,1.51,0,0,1-1.06-.44l-5.76-5.76a1.5,1.5,0,1,1,2.12-2.12l5.76,5.76a1.49,1.49,0,0,1,0,2.12A1.51,1.51,0,0,1,106.88,108Z"/><path class="cls-3" d="M58.11,198.6a9.15,9.15,0,0,1-18.29,0c0-5,5.82-17.1,9.14-17.1S58.11,193.62,58.11,198.6Z"/><path class="cls-1" d="M49,209.08A10.56,10.56,0,0,1,38.35,198.6c0-5.1,5.9-18.55,10.61-18.55,2.8,0,5.45,4.07,7.18,7.48,1.59,3.12,3.43,7.89,3.43,11.07A10.56,10.56,0,0,1,49,209.08ZM49,183c-2.08.17-7.67,10.77-7.67,15.65a7.68,7.68,0,0,0,15.35,0C56.64,193.3,50.78,183,49,183Z"/><path class="cls-3" d="M108,198.6a9.14,9.14,0,0,1-18.28,0c0-5,5.81-17.1,9.14-17.1S108,193.62,108,198.6Z"/><path class="cls-1" d="M98.85,209.08A10.56,10.56,0,0,1,88.24,198.6c0-5.1,5.89-18.55,10.61-18.55,2.8,0,5.45,4.07,7.18,7.48,1.58,3.12,3.43,7.89,3.43,11.07A10.56,10.56,0,0,1,98.85,209.08Zm0-26.13c-2.08.17-7.68,10.77-7.68,15.65a7.68,7.68,0,0,0,15.35,0C106.52,193.3,100.66,183,98.85,183Z"/><path class="cls-3" d="M172.54,198.6a9.14,9.14,0,0,1-18.28,0c0-5,5.82-17.1,9.14-17.1S172.54,193.62,172.54,198.6Z"/><path class="cls-1" d="M163.4,209.08a10.56,10.56,0,0,1-10.61-10.48c0-5.1,5.9-18.55,10.61-18.55,2.8,0,5.45,4.07,7.18,7.48,1.58,3.12,3.43,7.89,3.43,11.07A10.56,10.56,0,0,1,163.4,209.08Zm0-26.13c-2.08.17-7.67,10.77-7.67,15.65a7.68,7.68,0,0,0,15.35,0C171.08,193.3,165.21,183,163.4,183Z"/><path class="cls-3" d="M222.43,198.6a9.15,9.15,0,0,1-18.29,0c0-5,5.82-17.1,9.15-17.1S222.43,193.62,222.43,198.6Z"/><path class="cls-1" d="M213.29,209.08a10.56,10.56,0,0,1-10.61-10.48c0-5.1,5.89-18.55,10.61-18.55,2.8,0,5.45,4.07,7.18,7.48,1.58,3.12,3.43,7.89,3.43,11.07A10.56,10.56,0,0,1,213.29,209.08Zm0-26.13c-2.08.17-7.68,10.77-7.68,15.65a7.68,7.68,0,0,0,15.35,0C221,193.3,215.1,183,213.29,183Z"/><path class="cls-3" d="M82.63,162.92H189.85v0c27.57-.36,49.81-22.54,49.81-49.85,0-27.55-22.61-49.87-50.5-49.87-1.24,0-2.46.06-3.67.14a56.35,56.35,0,0,0-54.37-40.76c-31.16,0-56.43,25-56.43,55.73,0,.43,0,.85,0,1.27a43.46,43.46,0,0,0-9.4-1c-23.6,0-42.73,18.89-42.73,42.2s19.13,42.2,42.73,42.2H82.63Z"/><path class="cls-1" d="M189.85,164.37H82.63a1.45,1.45,0,1,1,0-2.9h107l.21,0c26.67-.35,48.36-22.06,48.36-48.4,0-26.7-22-48.43-49-48.43-1.08,0-2.21,0-3.57.15a1.48,1.48,0,0,1-1.52-1.06C177.48,40.33,155.71,24,131.12,24c-30.31,0-55,24.35-55,54.28,0,.26,0,.5,0,.75l0,.49a1.44,1.44,0,0,1-.54,1.15A1.48,1.48,0,0,1,74.4,81a42.31,42.31,0,0,0-9.08-1c-22.75,0-41.26,18.28-41.26,40.75s18.51,40.75,41.26,40.75h4.79a1.45,1.45,0,1,1,0,2.9H65.32c-24.37,0-44.2-19.58-44.2-43.65S41,77.07,65.32,77.07a44.8,44.8,0,0,1,7.9.71c.28-31.3,26.15-56.67,57.9-56.67A58,58,0,0,1,186.57,61.8c.93,0,1.77-.07,2.59-.07,28.65,0,52,23,52,51.32,0,27.84-22.87,50.8-51,51.3Z"/><polygon class="cls-2" points="109.28 125.28 100.22 154.45 135.17 154.45 135.64 207.97 162.03 137.92 130.97 137.92 146.88 88.35 120.74 88.35 113.36 112.11 109.28 125.28"/><path class="cls-1" d="M135.64,209.42a1.07,1.07,0,0,1-.25,0,1.45,1.45,0,0,1-1.22-1.41l-.46-52.08H100.22a1.49,1.49,0,0,1-1.18-.59,1.42,1.42,0,0,1-.22-1.29l9.05-29.17a1.48,1.48,0,0,1,1.84-1,1.44,1.44,0,0,1,1,1.81L102.2,153h33a1.45,1.45,0,0,1,1.46,1.44l.41,45.67,22.88-60.74H131a1.46,1.46,0,0,1-1.18-.59,1.42,1.42,0,0,1-.22-1.29L144.88,89.8H121.82l-7,22.73a1.47,1.47,0,0,1-1.84,1,1.44,1.44,0,0,1-1-1.8l7.38-23.76a1.45,1.45,0,0,1,1.4-1h26.14a1.49,1.49,0,0,1,1.19.59,1.47,1.47,0,0,1,.21,1.3L133,136.48H162a1.46,1.46,0,0,1,1.2.62,1.41,1.41,0,0,1,.17,1.33l-26.38,70A1.47,1.47,0,0,1,135.64,209.42Z"/><path class="cls-4" d="M238.19,113.05c0,26.34-21.7,48.05-48.36,48.4l-.2,0H173l.09-.07c25.83-1.29,46.56-22.61,46.56-48.35,0-26.71-22-48.42-49-48.42-1.09,0-2.22,0-3.58.13a1.47,1.47,0,0,1-1.52-1.05,54.94,54.94,0,0,0-43.67-38.93,55.94,55.94,0,0,1,9.3-.78,55,55,0,0,1,52.95,39.71,1.46,1.46,0,0,0,1.52,1.05c1.36-.09,2.49-.13,3.58-.13C216.2,64.63,238.19,86.34,238.19,113.05Z"/></g></g></svg>