<svg xmlns="http://www.w3.org/2000/svg" viewBox="0 0 220 220"><defs><style>.cls-1{fill:#d7e057;}.cls-2{fill:#3a312a;}.cls-3{fill:#b9c239;}.cls-4{fill:#8ac6dd;}.cls-5{fill:#6ca8bf;}</style></defs><g id="Layer_2" data-name="Layer 2"><g id="Layer_1-2" data-name="Layer 1"><path class="cls-1" d="M24.19,23.09C8.36,41.22,5,67.32,18,89.11c16.44,27.54,53.64,38,83.56,23.54a60.63,60.63,0,0,0,27.13-25.54,1.75,1.75,0,0,0-2.25-2.36C104,92.5,78.27,83.81,66.56,63.51S61.16,18.3,80.37,4.94a1.68,1.68,0,0,0-.87-3.06A66,66,0,0,0,42.9,8.62a64.18,64.18,0,0,0-7.51,4.48Z"/><path class="cls-2" d="M73,120.7a68.86,68.86,0,0,1-18.72-2.6c-16.14-4.54-29.52-14.58-37.68-28.25C3.54,68,6,41.46,22.93,22.12a1.71,1.71,0,0,1,2.3-.21,1.46,1.46,0,0,1,.23,2.15c-16,18.36-18.41,43.6-6.05,64.3,11.08,18.57,32.16,29.2,53.72,29.2a63.48,63.48,0,0,0,27.66-6.27,58.94,58.94,0,0,0,26.42-24.87.12.12,0,0,0,0-.18.16.16,0,0,0-.2,0c-23.39,8.07-50-1.37-61.86-22S59.39,17.64,79.4,3.71a.16.16,0,0,0,.07-.19.16.16,0,0,0-.15-.12A64.23,64.23,0,0,0,43.68,10a62.45,62.45,0,0,0-7.32,4.36A1.69,1.69,0,0,1,34.08,14a1.47,1.47,0,0,1,.34-2.14,67,67,0,0,1,7.71-4.6A67.67,67.67,0,0,1,79.67.36a3.36,3.36,0,0,1,3,2.36,3.13,3.13,0,0,1-1.27,3.45C62.63,19.19,56.89,43.53,68,62.78s36,28.08,57.86,20.54a3.57,3.57,0,0,1,3.78.89,3,3,0,0,1,.49,3.6A62.12,62.12,0,0,1,102.29,114,67.3,67.3,0,0,1,73,120.7Z"/><path class="cls-3" d="M127.22,86.42a59,59,0,0,1-26.43,24.87A64.1,64.1,0,0,1,64.39,117a62.69,62.69,0,0,0,19-5.69A59.13,59.13,0,0,0,108.28,89,52.72,52.72,0,0,0,127,86.18a.17.17,0,0,1,.2,0C127.26,86.33,127.24,86.38,127.22,86.42Z"/><path class="cls-4" d="M37,209.19a9.15,9.15,0,0,1-18.29,0c0-5,5.82-17.11,9.15-17.11S37,204.2,37,209.19Z"/><path class="cls-2" d="M27.84,219.66a10.55,10.55,0,0,1-10.61-10.47c0-5.11,5.89-18.55,10.61-18.55,2.8,0,5.45,4.06,7.18,7.48,1.58,3.11,3.43,7.88,3.43,11.07A10.55,10.55,0,0,1,27.84,219.66Zm0-26.13c-2.08.18-7.68,10.77-7.68,15.66a7.68,7.68,0,0,0,15.35,0C35.51,203.88,29.65,193.53,27.84,193.53Z"/><path class="cls-4" d="M86.87,209.19a9.15,9.15,0,0,1-18.29,0c0-5,5.82-17.11,9.14-17.11C81.19,192.08,86.87,204.2,86.87,209.19Z"/><path class="cls-2" d="M77.72,219.66a10.55,10.55,0,0,1-10.61-10.47c0-5.11,5.9-18.55,10.61-18.55,2.8,0,5.45,4.06,7.19,7.48,1.58,3.11,3.42,7.88,3.42,11.07A10.55,10.55,0,0,1,77.72,219.66Zm0-26.13c-2.08.18-7.67,10.77-7.67,15.66a7.68,7.68,0,0,0,15.35,0C85.4,203.88,79.54,193.53,77.72,193.53Z"/><path class="cls-4" d="M151.42,209.19a9.15,9.15,0,0,1-18.29,0c0-5,5.82-17.11,9.15-17.11S151.42,204.2,151.42,209.19Z"/><path class="cls-2" d="M142.28,219.66a10.55,10.55,0,0,1-10.61-10.47c0-5.11,5.89-18.55,10.61-18.55,2.79,0,5.45,4.06,7.18,7.48,1.58,3.11,3.43,7.88,3.43,11.07A10.55,10.55,0,0,1,142.28,219.66Zm0-26.13c-2.08.18-7.68,10.77-7.68,15.66a7.68,7.68,0,0,0,15.35,0C150,203.88,144.09,193.53,142.28,193.53Z"/><path class="cls-4" d="M201.31,209.19a9.15,9.15,0,0,1-18.29,0c0-5,5.82-17.11,9.14-17.11C195.63,192.08,201.31,204.2,201.31,209.19Z"/><path class="cls-2" d="M192.16,219.66a10.55,10.55,0,0,1-10.61-10.47c0-5.11,5.9-18.55,10.61-18.55,2.8,0,5.45,4.06,7.18,7.48,1.59,3.11,3.43,7.88,3.43,11.07A10.55,10.55,0,0,1,192.16,219.66Zm0-26.13c-2.08.18-7.67,10.77-7.67,15.66a7.68,7.68,0,0,0,15.35,0C199.84,203.88,194,193.53,192.16,193.53Z"/><path class="cls-4" d="M61.5,173.5H168.72v0c27.57-.36,49.81-22.53,49.81-49.85,0-27.54-22.6-49.87-50.49-49.87-1.24,0-2.46.06-3.68.15A56.34,56.34,0,0,0,110,33.14c-31.17,0-56.44,25-56.44,55.74,0,.42,0,.84,0,1.26a43.32,43.32,0,0,0-9.4-1C20.6,89.1,1.47,108,1.47,131.3s19.13,42.2,42.72,42.2H61.5Z"/><path class="cls-2" d="M168.72,175H61.5a1.45,1.45,0,1,1,0-2.9H168.7c26.67-.36,48.37-22.07,48.37-48.41,0-26.7-22-48.42-49-48.42-1.08,0-2.22,0-3.57.14A1.46,1.46,0,0,1,163,74.29c-6.59-23.37-28.36-39.7-52.95-39.7-30.31,0-55,24.35-55,54.29,0,.25,0,.5,0,.75v.48a1.46,1.46,0,0,1-1.79,1.44,42.24,42.24,0,0,0-9.08-1c-22.75,0-41.26,18.28-41.26,40.75s18.51,40.75,41.26,40.75H49a1.45,1.45,0,1,1,0,2.9h-4.8C19.83,175,0,155.37,0,131.3S19.83,87.66,44.19,87.66a44.82,44.82,0,0,1,7.91.7c.28-31.29,26.15-56.67,57.9-56.67a58,58,0,0,1,55.44,40.7c.93,0,1.78-.08,2.6-.08,28.65,0,52,23,52,51.32,0,27.84-22.87,50.81-51,51.3Z"/><polygon class="cls-1" points="88.15 135.86 79.1 165.03 114.04 165.03 114.52 218.55 140.9 148.51 109.84 148.51 125.76 98.93 99.61 98.93 92.24 122.69 88.15 135.86"/><path class="cls-2" d="M114.52,220l-.26,0a1.47,1.47,0,0,1-1.21-1.42l-.46-52.08H79.1a1.46,1.46,0,0,1-1.18-.59,1.43,1.43,0,0,1-.23-1.28l9.06-29.18a1.48,1.48,0,0,1,1.83-1,1.44,1.44,0,0,1,1,1.81l-8.47,27.3h33a1.46,1.46,0,0,1,1.47,1.44l.4,45.67L138.79,150H109.84a1.47,1.47,0,0,1-1.18-.6,1.42,1.42,0,0,1-.21-1.29l15.3-47.69h-23l-7.06,22.74a1.48,1.48,0,0,1-1.83,1,1.44,1.44,0,0,1-1-1.81l7.37-23.76a1.46,1.46,0,0,1,1.4-1h26.15a1.47,1.47,0,0,1,1.18.59,1.42,1.42,0,0,1,.22,1.29l-15.31,47.69H140.9a1.49,1.49,0,0,1,1.21.62,1.44,1.44,0,0,1,.17,1.33l-26.39,70.05A1.47,1.47,0,0,1,114.52,220Z"/><path class="cls-5" d="M217.07,123.63c0,26.34-21.7,48.05-48.36,48.41l-.21,0H151.84l.09-.08c25.83-1.28,46.56-22.61,46.56-48.35,0-26.7-22-48.42-49-48.42-1.08,0-2.22,0-3.58.14a1.47,1.47,0,0,1-1.51-1.06,54.94,54.94,0,0,0-43.68-38.92,56,56,0,0,1,9.31-.79c24.58,0,46.36,16.33,52.95,39.71a1.47,1.47,0,0,0,1.51,1.06c1.36-.1,2.5-.14,3.58-.14C195.08,75.21,217.07,96.93,217.07,123.63Z"/></g></g></svg>