<svg xmlns="http://www.w3.org/2000/svg" viewBox="0 0 220 220"><defs><style>.cls-1{fill:#d7e057;}.cls-2{fill:#3a312a;}.cls-3{fill:#8ac6dd;}.cls-4{fill:#fae6ca;}.cls-5{fill:#6ca8bf;}</style></defs><g id="Layer_2" data-name="Layer 2"><g id="Layer_1-2" data-name="Layer 1"><ellipse class="cls-1" cx="58.41" cy="64.45" rx="37.61" ry="41.49"/><path class="cls-2" d="M58.41,107.47c-21.5,0-39-19.3-39-43s17.49-43,39-43,39,19.3,39,43S79.92,107.47,58.41,107.47Zm0-83c-20,0-36.22,17.92-36.22,40s16.25,40,36.22,40,36.22-17.93,36.22-40S78.39,24.49,58.41,24.49Z"/><path class="cls-2" d="M58.18,11.38a1.46,1.46,0,0,1-1.39-1.53V1.53a1.4,1.4,0,1,1,2.78,0V9.85A1.46,1.46,0,0,1,58.18,11.38Z"/><path class="cls-2" d="M58.65,128.9a1.47,1.47,0,0,1-1.39-1.54V119A1.4,1.4,0,1,1,60,119v8.32A1.47,1.47,0,0,1,58.65,128.9Z"/><path class="cls-2" d="M93.24,27.19a1.31,1.31,0,0,1-1-.45,1.64,1.64,0,0,1,0-2.16l5.33-5.89a1.29,1.29,0,0,1,2,0,1.63,1.63,0,0,1,0,2.17l-5.33,5.88A1.31,1.31,0,0,1,93.24,27.19Z"/><path class="cls-2" d="M18.26,110.65a1.31,1.31,0,0,1-1-.45,1.62,1.62,0,0,1,0-2.16l5.33-5.88a1.29,1.29,0,0,1,2,0,1.64,1.64,0,0,1,0,2.16l-5.33,5.88A1.32,1.32,0,0,1,18.26,110.65Z"/><path class="cls-2" d="M115.44,65.72H107.9a1.54,1.54,0,0,1,0-3.06h7.54a1.54,1.54,0,0,1,0,3.06Z"/><path class="cls-2" d="M8.93,66.24H1.39a1.54,1.54,0,0,1,0-3.06H8.93a1.54,1.54,0,0,1,0,3.06Z"/><path class="cls-2" d="M98.91,110.28a1.35,1.35,0,0,1-1-.44L92.59,104a1.64,1.64,0,0,1,0-2.16,1.29,1.29,0,0,1,2,0l5.34,5.88a1.66,1.66,0,0,1,0,2.17A1.35,1.35,0,0,1,98.91,110.28Z"/><path class="cls-2" d="M23.26,27.56a1.34,1.34,0,0,1-1-.45l-5.33-5.88a1.66,1.66,0,0,1,0-2.17,1.3,1.3,0,0,1,2,0l5.33,5.88a1.66,1.66,0,0,1,0,2.17A1.32,1.32,0,0,1,23.26,27.56Z"/><path class="cls-3" d="M70,170.66H171.47v0c26.09-.38,47.14-23.82,47.14-52.7,0-29.12-21.39-52.73-47.79-52.73-1.17,0-2.33.06-3.48.15-6.27-24.85-26.92-43.1-51.45-43.1-29.49,0-53.41,26.39-53.41,58.93,0,.45,0,.89,0,1.34a36.88,36.88,0,0,0-8.89-1.1c-22.34,0-40.44,20-40.44,44.62s18.1,44.61,40.44,44.61H70Z"/><path class="cls-2" d="M171.47,172.19H70a1.54,1.54,0,0,1,0-3.06H171.26l.19,0c25.24-.37,45.77-23.33,45.77-51.17,0-28.23-20.81-51.2-46.4-51.2-1,0-2.09.05-3.38.15A1.4,1.4,0,0,1,166,65.77c-6.23-24.71-26.84-42-50.11-42-28.68,0-52,25.75-52,57.39,0,.27,0,.53,0,.8v.51a1.57,1.57,0,0,1-.51,1.21,1.27,1.27,0,0,1-1.18.31A36,36,0,0,0,53.62,83c-21.54,0-39,19.33-39,43.09s17.51,43.08,39.05,43.08h4.53a1.54,1.54,0,0,1,0,3.06H53.62c-23.07,0-41.83-20.7-41.83-46.14S30.55,79.9,53.62,79.9a37.88,37.88,0,0,1,7.48.75c.26-33.09,24.74-59.92,54.79-59.92,24.14,0,45.55,17.63,52.47,43,.89-.06,1.69-.08,2.46-.08C197.94,63.68,220,88,220,117.94c0,29.43-21.65,53.71-48.3,54.23A.86.86,0,0,1,171.47,172.19Z"/><path class="cls-4" d="M120,216.79a1.32,1.32,0,0,1-1-.45L115.89,213l-3.07,3.39a1.29,1.29,0,0,1-2,0,1.62,1.62,0,0,1,0-2.16l4-4.48a1.35,1.35,0,0,1,2,0l4.05,4.48a1.62,1.62,0,0,1,0,2.16A1.31,1.31,0,0,1,120,216.79Z"/><path class="cls-4" d="M115.89,189.93a1.32,1.32,0,0,1-1-.45l-4-4.48a1.62,1.62,0,0,1,0-2.16,1.29,1.29,0,0,1,2,0l3.07,3.39,3.08-3.39a1.29,1.29,0,0,1,2,0,1.62,1.62,0,0,1,0,2.16l-4.05,4.48A1.34,1.34,0,0,1,115.89,189.93Z"/><path class="cls-4" d="M115.83,220h0a1.46,1.46,0,0,1-1.38-1.54l.13-37.76a1.47,1.47,0,0,1,1.39-1.52h0a1.47,1.47,0,0,1,1.38,1.54l-.14,37.75A1.46,1.46,0,0,1,115.83,220Z"/><path class="cls-4" d="M101.69,205.6a1.32,1.32,0,0,1-1-.45,1.66,1.66,0,0,1,0-2.17l3.08-3.39-3.08-3.4a1.64,1.64,0,0,1,0-2.16,1.29,1.29,0,0,1,2,0l4.06,4.48a1.64,1.64,0,0,1,0,2.16l-4.06,4.48A1.31,1.31,0,0,1,101.69,205.6Z"/><path class="cls-4" d="M130.1,205.6a1.31,1.31,0,0,1-1-.45l-4.06-4.48a1.64,1.64,0,0,1,0-2.16l4.06-4.48a1.29,1.29,0,0,1,2,0,1.64,1.64,0,0,1,0,2.16l-3.08,3.4,3.08,3.39a1.66,1.66,0,0,1,0,2.17A1.32,1.32,0,0,1,130.1,205.6Z"/><path class="cls-4" d="M133,201.2h0l-34.22-.15a1.54,1.54,0,0,1,0-3.07l34.22.15a1.54,1.54,0,0,1,0,3.07Z"/><path class="cls-4" d="M108.72,215.37a1.47,1.47,0,0,1-1.39-1.53V209H103a1.54,1.54,0,0,1,0-3.07h5.74a1.47,1.47,0,0,1,1.39,1.53v6.34A1.47,1.47,0,0,1,108.72,215.37Z"/><path class="cls-4" d="M128.81,193.21h-5.74a1.47,1.47,0,0,1-1.39-1.54v-6.33a1.4,1.4,0,1,1,2.78,0v4.8h4.35a1.54,1.54,0,0,1,0,3.07Z"/><path class="cls-4" d="M103.75,214.42a1.33,1.33,0,0,1-1-.45,1.64,1.64,0,0,1,0-2.17l24.29-26.59a1.3,1.3,0,0,1,2,0,1.66,1.66,0,0,1,0,2.17L104.72,214A1.3,1.3,0,0,1,103.75,214.42Z"/><path class="cls-4" d="M108.72,193.21H103a1.54,1.54,0,0,1,0-3.07h4.35v-4.8a1.4,1.4,0,1,1,2.78,0v6.33A1.47,1.47,0,0,1,108.72,193.21Z"/><path class="cls-4" d="M123.07,215.37a1.47,1.47,0,0,1-1.39-1.53V207.5a1.47,1.47,0,0,1,1.39-1.53h5.74a1.54,1.54,0,0,1,0,3.07h-4.35v4.8A1.47,1.47,0,0,1,123.07,215.37Z"/><path class="cls-4" d="M128,214.52a1.33,1.33,0,0,1-1-.45l-24.1-26.8a1.66,1.66,0,0,1,0-2.17,1.3,1.3,0,0,1,2,0l24.1,26.8a1.64,1.64,0,0,1,0,2.17A1.29,1.29,0,0,1,128,214.52Z"/><path class="cls-4" d="M57.52,216.79a1.34,1.34,0,0,1-1-.45L53.46,213l-3.08,3.39a1.29,1.29,0,0,1-2,0,1.64,1.64,0,0,1,0-2.16l4.06-4.48a1.34,1.34,0,0,1,2,0l4.06,4.48a1.64,1.64,0,0,1,0,2.16A1.32,1.32,0,0,1,57.52,216.79Z"/><path class="cls-4" d="M53.46,189.93a1.31,1.31,0,0,1-1-.45L48.42,185a1.64,1.64,0,0,1,0-2.16,1.29,1.29,0,0,1,2,0l3.08,3.39,3.07-3.39a1.3,1.3,0,0,1,2,0,1.64,1.64,0,0,1,0,2.16l-4.06,4.48A1.32,1.32,0,0,1,53.46,189.93Z"/><path class="cls-4" d="M53.39,220h0A1.47,1.47,0,0,1,52,218.46l.14-37.76a1.46,1.46,0,0,1,1.39-1.52h0a1.46,1.46,0,0,1,1.38,1.54l-.13,37.75A1.47,1.47,0,0,1,53.39,220Z"/><path class="cls-4" d="M39.25,205.6a1.32,1.32,0,0,1-1-.45,1.66,1.66,0,0,1,0-2.17l3.08-3.39-3.08-3.4a1.64,1.64,0,0,1,0-2.16,1.3,1.3,0,0,1,2,0l4,4.48a1.62,1.62,0,0,1,0,2.16l-4,4.48A1.34,1.34,0,0,1,39.25,205.6Z"/><path class="cls-4" d="M67.66,205.6a1.32,1.32,0,0,1-1-.45l-4.06-4.48a1.64,1.64,0,0,1,0-2.16L66.68,194a1.29,1.29,0,0,1,2,0,1.64,1.64,0,0,1,0,2.16l-3.07,3.4L68.64,203a1.66,1.66,0,0,1,0,2.17A1.31,1.31,0,0,1,67.66,205.6Z"/><path class="cls-4" d="M70.57,201.2h0l-34.22-.15A1.47,1.47,0,0,1,35,199.51,1.49,1.49,0,0,1,36.35,198l34.23.15a1.54,1.54,0,0,1,0,3.07Z"/><path class="cls-4" d="M46.28,215.37a1.47,1.47,0,0,1-1.38-1.53V209H40.55a1.54,1.54,0,0,1,0-3.07h5.73a1.47,1.47,0,0,1,1.39,1.53v6.34A1.47,1.47,0,0,1,46.28,215.37Z"/><path class="cls-4" d="M66.37,193.21H60.63a1.48,1.48,0,0,1-1.39-1.54v-6.33a1.4,1.4,0,1,1,2.78,0v4.8h4.35a1.54,1.54,0,0,1,0,3.07Z"/><path class="cls-4" d="M41.31,214.42a1.34,1.34,0,0,1-1-.45,1.67,1.67,0,0,1,0-2.17l24.3-26.59a1.29,1.29,0,0,1,2,0,1.64,1.64,0,0,1,0,2.17L42.29,214A1.32,1.32,0,0,1,41.31,214.42Z"/><path class="cls-4" d="M46.28,193.21H40.55a1.54,1.54,0,0,1,0-3.07H44.9v-4.8a1.39,1.39,0,1,1,2.77,0v6.33A1.47,1.47,0,0,1,46.28,193.21Z"/><path class="cls-4" d="M60.63,215.37a1.47,1.47,0,0,1-1.39-1.53V207.5A1.47,1.47,0,0,1,60.63,206h5.74a1.54,1.54,0,0,1,0,3.07H62v4.8A1.47,1.47,0,0,1,60.63,215.37Z"/><path class="cls-4" d="M65.51,214.52a1.34,1.34,0,0,1-1-.45l-24.1-26.8a1.64,1.64,0,0,1,0-2.17,1.29,1.29,0,0,1,2,0l24.11,26.8a1.66,1.66,0,0,1,0,2.17A1.31,1.31,0,0,1,65.51,214.52Z"/><path class="cls-4" d="M182.39,216.79a1.31,1.31,0,0,1-1-.45L178.33,213l-3.08,3.39a1.29,1.29,0,0,1-2,0,1.64,1.64,0,0,1,0-2.16l4.06-4.48a1.34,1.34,0,0,1,2,0l4.06,4.48a1.64,1.64,0,0,1,0,2.16A1.32,1.32,0,0,1,182.39,216.79Z"/><path class="cls-4" d="M178.33,189.93h0a1.31,1.31,0,0,1-1-.45L173.29,185a1.64,1.64,0,0,1,0-2.16,1.29,1.29,0,0,1,2,0l3.08,3.39,3.08-3.39a1.29,1.29,0,0,1,2,0,1.64,1.64,0,0,1,0,2.16l-4.06,4.48A1.31,1.31,0,0,1,178.33,189.93Z"/><path class="cls-4" d="M178.26,220h0a1.46,1.46,0,0,1-1.38-1.54L177,180.7a1.4,1.4,0,1,1,2.78,0l-.14,37.75A1.46,1.46,0,0,1,178.26,220Z"/><path class="cls-4" d="M164.13,205.6a1.31,1.31,0,0,1-1-.45,1.63,1.63,0,0,1,0-2.17l3.07-3.39-3.07-3.4a1.62,1.62,0,0,1,0-2.16,1.29,1.29,0,0,1,2,0l4.06,4.48a1.58,1.58,0,0,1,.4,1.08,1.6,1.6,0,0,1-.4,1.08l-4.06,4.48A1.32,1.32,0,0,1,164.13,205.6Z"/><path class="cls-4" d="M192.53,205.6a1.32,1.32,0,0,1-1-.45l-4.05-4.48a1.56,1.56,0,0,1-.41-1.08,1.55,1.55,0,0,1,.41-1.08l4.05-4.48a1.3,1.3,0,0,1,2,0,1.64,1.64,0,0,1,0,2.16l-3.08,3.4,3.08,3.39a1.66,1.66,0,0,1,0,2.17A1.33,1.33,0,0,1,192.53,205.6Z"/><path class="cls-4" d="M195.44,201.2h0l-34.23-.15a1.48,1.48,0,0,1-1.38-1.54,1.46,1.46,0,0,1,1.39-1.53h0l34.23.15a1.54,1.54,0,0,1,0,3.07Z"/><path class="cls-4" d="M171.16,215.37a1.47,1.47,0,0,1-1.39-1.53V209h-4.35a1.54,1.54,0,0,1,0-3.07h5.74a1.47,1.47,0,0,1,1.39,1.53v6.34A1.47,1.47,0,0,1,171.16,215.37Z"/><path class="cls-4" d="M191.24,193.21h-5.73a1.47,1.47,0,0,1-1.39-1.54v-6.33a1.39,1.39,0,1,1,2.77,0v4.8h4.35a1.54,1.54,0,0,1,0,3.07Z"/><path class="cls-4" d="M166.18,214.42a1.32,1.32,0,0,1-1-.45,1.64,1.64,0,0,1,0-2.17l24.29-26.59a1.29,1.29,0,0,1,2,0,1.66,1.66,0,0,1,0,2.17L167.16,214A1.31,1.31,0,0,1,166.18,214.42Z"/><path class="cls-4" d="M171.16,193.21h-5.74a1.54,1.54,0,0,1,0-3.07h4.35v-4.8a1.4,1.4,0,1,1,2.78,0v6.33A1.48,1.48,0,0,1,171.16,193.21Z"/><path class="cls-4" d="M185.51,215.37a1.47,1.47,0,0,1-1.39-1.53V207.5a1.47,1.47,0,0,1,1.39-1.53h5.73a1.54,1.54,0,0,1,0,3.07h-4.35v4.8A1.47,1.47,0,0,1,185.51,215.37Z"/><path class="cls-4" d="M190.38,214.52a1.32,1.32,0,0,1-1-.45l-24.11-26.8a1.66,1.66,0,0,1,0-2.17,1.29,1.29,0,0,1,2,0l24.11,26.8a1.64,1.64,0,0,1,0,2.17A1.3,1.3,0,0,1,190.38,214.52Z"/><path class="cls-4" d="M89,141.37a1.32,1.32,0,0,1-1-.45l-3.07-3.39-3.08,3.39a1.29,1.29,0,0,1-2,0,1.62,1.62,0,0,1,0-2.16l4.05-4.48a1.3,1.3,0,0,1,2,0l4,4.48a1.62,1.62,0,0,1,0,2.16A1.31,1.31,0,0,1,89,141.37Z"/><path class="cls-4" d="M84.92,114.51a1.33,1.33,0,0,1-1-.45l-4.05-4.48a1.62,1.62,0,0,1,0-2.16,1.29,1.29,0,0,1,2,0l3.08,3.39L88,107.42a1.29,1.29,0,0,1,2,0,1.62,1.62,0,0,1,0,2.16l-4,4.48A1.32,1.32,0,0,1,84.92,114.51Z"/><path class="cls-4" d="M84.85,144.58h0A1.47,1.47,0,0,1,83.46,143l.13-37.76a1.5,1.5,0,0,1,1.4-1.52,1.47,1.47,0,0,1,1.38,1.54l-.13,37.76A1.47,1.47,0,0,1,84.85,144.58Z"/><path class="cls-4" d="M70.71,130.18a1.32,1.32,0,0,1-1-.45,1.66,1.66,0,0,1,0-2.17l3.08-3.39-3.08-3.39a1.66,1.66,0,0,1,0-2.17,1.29,1.29,0,0,1,2,0l4.06,4.48a1.64,1.64,0,0,1,0,2.16l-4.06,4.48A1.31,1.31,0,0,1,70.71,130.18Z"/><path class="cls-4" d="M99.12,130.18a1.31,1.31,0,0,1-1-.45l-4.06-4.48a1.64,1.64,0,0,1,0-2.16l4.06-4.48a1.29,1.29,0,0,1,2,0,1.66,1.66,0,0,1,0,2.17L97,124.17l3.08,3.39a1.66,1.66,0,0,1,0,2.17A1.32,1.32,0,0,1,99.12,130.18Z"/><path class="cls-4" d="M102,125.78h0l-34.22-.15a1.54,1.54,0,0,1,0-3.07h0l34.22.15a1.54,1.54,0,0,1,0,3.07Z"/><path class="cls-4" d="M77.74,140a1.47,1.47,0,0,1-1.39-1.53v-4.8H72a1.54,1.54,0,0,1,0-3.07h5.74a1.47,1.47,0,0,1,1.39,1.53v6.34A1.47,1.47,0,0,1,77.74,140Z"/><path class="cls-4" d="M97.83,117.79H92.09a1.47,1.47,0,0,1-1.39-1.53v-6.34a1.4,1.4,0,1,1,2.78,0v4.8h4.35a1.54,1.54,0,0,1,0,3.07Z"/><path class="cls-4" d="M72.77,139a1.33,1.33,0,0,1-1-.45,1.66,1.66,0,0,1,0-2.17l24.29-26.59a1.3,1.3,0,0,1,2,0A1.66,1.66,0,0,1,98,112l-24.3,26.59A1.3,1.3,0,0,1,72.77,139Z"/><path class="cls-4" d="M77.74,117.79H72a1.54,1.54,0,0,1,0-3.07h4.35v-4.8a1.4,1.4,0,1,1,2.78,0v6.34A1.47,1.47,0,0,1,77.74,117.79Z"/><path class="cls-4" d="M92.09,140a1.47,1.47,0,0,1-1.39-1.53v-6.34a1.47,1.47,0,0,1,1.39-1.53h5.74a1.54,1.54,0,0,1,0,3.07H93.48v4.8A1.47,1.47,0,0,1,92.09,140Z"/><path class="cls-4" d="M97,139.1a1.33,1.33,0,0,1-1-.45l-24.1-26.8a1.64,1.64,0,0,1,0-2.17,1.29,1.29,0,0,1,2,0L98,136.49a1.64,1.64,0,0,1,0,2.17A1.29,1.29,0,0,1,97,139.1Z"/><path class="cls-4" d="M150.93,141.37a1.32,1.32,0,0,1-1-.45l-3.08-3.39-3.07,3.39a1.29,1.29,0,0,1-2,0,1.62,1.62,0,0,1,0-2.16l4-4.48a1.35,1.35,0,0,1,2,0l4,4.48a1.62,1.62,0,0,1,0,2.16A1.31,1.31,0,0,1,150.93,141.37Z"/><path class="cls-4" d="M146.87,114.51h0a1.33,1.33,0,0,1-1-.45l-4-4.48a1.62,1.62,0,0,1,0-2.16,1.29,1.29,0,0,1,2,0l3.07,3.39,3.08-3.39a1.29,1.29,0,0,1,2,0,1.62,1.62,0,0,1,0,2.16l-4,4.48A1.33,1.33,0,0,1,146.87,114.51Z"/><path class="cls-4" d="M146.81,144.58h0a1.46,1.46,0,0,1-1.38-1.54l.13-37.76a1.4,1.4,0,1,1,2.78,0l-.14,37.76A1.46,1.46,0,0,1,146.81,144.58Z"/><path class="cls-4" d="M132.67,130.18a1.32,1.32,0,0,1-1-.45,1.66,1.66,0,0,1,0-2.17l3.08-3.39-3.08-3.39a1.66,1.66,0,0,1,0-2.17,1.29,1.29,0,0,1,2,0l4.06,4.48a1.63,1.63,0,0,1,0,2.16l-4.06,4.48A1.31,1.31,0,0,1,132.67,130.18Z"/><path class="cls-4" d="M161.08,130.18a1.31,1.31,0,0,1-1-.45L156,125.25a1.64,1.64,0,0,1,0-2.16l4.06-4.48a1.29,1.29,0,0,1,2,0,1.66,1.66,0,0,1,0,2.17L159,124.17l3.08,3.39a1.66,1.66,0,0,1,0,2.17A1.32,1.32,0,0,1,161.08,130.18Z"/><path class="cls-4" d="M164,125.78h0l-34.22-.15a1.54,1.54,0,0,1,0-3.07h0l34.22.15a1.54,1.54,0,0,1,0,3.07Z"/><path class="cls-4" d="M139.7,140a1.47,1.47,0,0,1-1.39-1.53v-4.8H134a1.54,1.54,0,0,1,0-3.07h5.74a1.47,1.47,0,0,1,1.39,1.53v6.34A1.47,1.47,0,0,1,139.7,140Z"/><path class="cls-4" d="M159.79,117.79h-5.74a1.47,1.47,0,0,1-1.39-1.53v-6.34a1.4,1.4,0,1,1,2.78,0v4.8h4.35a1.54,1.54,0,0,1,0,3.07Z"/><path class="cls-4" d="M134.73,139a1.33,1.33,0,0,1-1-.45,1.64,1.64,0,0,1,0-2.17L158,109.79a1.3,1.3,0,0,1,2,0,1.66,1.66,0,0,1,0,2.17l-24.3,26.59A1.3,1.3,0,0,1,134.73,139Z"/><path class="cls-4" d="M139.7,117.79H134a1.54,1.54,0,0,1,0-3.07h4.35v-4.8a1.4,1.4,0,1,1,2.78,0v6.34A1.47,1.47,0,0,1,139.7,117.79Z"/><path class="cls-4" d="M154.05,140a1.47,1.47,0,0,1-1.39-1.53v-6.34a1.47,1.47,0,0,1,1.39-1.53h5.74a1.54,1.54,0,0,1,0,3.07h-4.35v4.8A1.47,1.47,0,0,1,154.05,140Z"/><path class="cls-4" d="M158.93,139.1a1.33,1.33,0,0,1-1-.45l-24.1-26.8a1.66,1.66,0,0,1,0-2.17,1.3,1.3,0,0,1,2,0l24.1,26.8a1.64,1.64,0,0,1,0,2.17A1.29,1.29,0,0,1,158.93,139.1Z"/><path class="cls-5" d="M217.22,117.93c0,27.86-20.53,50.81-45.77,51.19l-.19,0H155.49l.08-.09c24.45-1.35,44.07-23.9,44.07-51.12,0-28.22-20.81-51.19-46.4-51.19-1,0-2.1,0-3.38.15a1.41,1.41,0,0,1-1.44-1.12C143,44.22,126.61,28.34,107.08,24.62a47.57,47.57,0,0,1,8.81-.83c23.27,0,43.88,17.27,50.11,42a1.41,1.41,0,0,0,1.44,1.12c1.28-.11,2.36-.15,3.39-.15C196.41,66.74,217.22,89.71,217.22,117.93Z"/></g></g></svg>