<svg xmlns="http://www.w3.org/2000/svg" viewBox="0 0 220 220"><defs><style>.cls-1{fill:#d7e057;}.cls-2{fill:#3a312a;}.cls-3{fill:#b9c239;}.cls-4{fill:#8ac6dd;}.cls-5{fill:#6ca8bf;}</style></defs><g id="Layer_2" data-name="Layer 2"><g id="Layer_1-2" data-name="Layer 1"><path class="cls-1" d="M17.36,42.73c-11.24,25-6.56,54.75,14.37,74.58,26.45,25.07,69.78,24.76,97.32-.7a69.13,69.13,0,0,0,21-36.71A2,2,0,0,0,146.9,78C125.23,93.68,94.84,92.3,75.78,73.7S55.57,25.7,72,4.88A1.92,1.92,0,0,0,70,1.8,72.83,72.83,0,0,0,32.85,20.86a71.14,71.14,0,0,0-6.64,7.32Z"/><path class="cls-2" d="M100.9,134.57a75.7,75.7,0,0,1-21,3.1,70.75,70.75,0,0,1-49.51-19.08C9.49,98.74,3.7,68.7,15.69,42.06a1.89,1.89,0,0,1,2.4-1,1.7,1.7,0,0,1,.93,2.3C7.64,68.68,13.14,97.2,33,116c17.84,16.9,43.89,21.87,67.06,15a70.14,70.14,0,0,0,27.73-15.7A67.23,67.23,0,0,0,148.29,79.6a.16.16,0,0,0-.09-.19.2.2,0,0,0-.24,0C125.39,95.73,93.79,93.82,74.47,75s-21-49.43-4-71.12a.18.18,0,0,0,0-.23.16.16,0,0,0-.2-.08A70.5,70.5,0,0,0,27.65,29.22a1.9,1.9,0,0,1-2.56.38,1.72,1.72,0,0,1-.32-2.47A74.5,74.5,0,0,1,69.74.07a3.76,3.76,0,0,1,3.92,1.66,3.62,3.62,0,0,1-.27,4.2C57.43,26.21,59,54.8,77.09,72.44s47.63,19.44,68.74,4.17a4,4,0,0,1,4.34-.22,3.55,3.55,0,0,1,1.69,3.81,70.84,70.84,0,0,1-21.57,37.67A74.4,74.4,0,0,1,100.9,134.57Z"/><path class="cls-3" d="M148.29,79.59a67.24,67.24,0,0,1-20.48,35.77A70.67,70.67,0,0,1,90.5,133.2a69.45,69.45,0,0,0,18.59-12.3,67.3,67.3,0,0,0,19.67-32.41A58.1,58.1,0,0,0,148,79.41a.21.21,0,0,1,.24,0C148.31,79.48,148.3,79.54,148.29,79.59Z"/><path class="cls-2" d="M86.91,220H2a1.48,1.48,0,0,1,0-3h85a1.48,1.48,0,0,1,0,3Z"/><path class="cls-2" d="M218,220H100.1a1.48,1.48,0,0,1,0-3H218a1.48,1.48,0,0,1,0,3Z"/><path class="cls-2" d="M218,204.19H2a1.48,1.48,0,0,1,0-3H218a1.48,1.48,0,0,1,0,3Z"/><path class="cls-2" d="M129.06,188.38H2a1.48,1.48,0,0,1,0-3h127.1a1.48,1.48,0,0,1,0,3Z"/><path class="cls-2" d="M218,188.38H142.7a1.48,1.48,0,0,1,0-3H218a1.48,1.48,0,0,1,0,3Z"/><path class="cls-4" d="M61.5,172.25H168.72v0c27.57-.37,49.81-23.06,49.81-51,0-28.18-22.6-51-50.49-51-1.24,0-2.46.06-3.68.15A56.54,56.54,0,0,0,110,28.63c-31.17,0-56.44,25.54-56.44,57,0,.44,0,.87,0,1.3a42.12,42.12,0,0,0-9.4-1.06A43,43,0,0,0,1.47,129.07c0,23.85,19.13,43.18,42.72,43.18H61.5Z"/><path class="cls-2" d="M168.72,173.73H61.5a1.48,1.48,0,0,1,0-3h107l.2,0c26.67-.36,48.37-22.58,48.37-49.53,0-27.32-22-49.54-49-49.54-1.08,0-2.22,0-3.57.14A1.49,1.49,0,0,1,163,70.74,55.21,55.21,0,0,0,110,30.11C79.69,30.11,55,55,55,85.66c0,.26,0,.52,0,.77v.49a1.48,1.48,0,0,1-.54,1.18,1.45,1.45,0,0,1-1.25.3,41,41,0,0,0-9.08-1c-22.75,0-41.26,18.7-41.26,41.69s18.51,41.7,41.26,41.7H49a1.48,1.48,0,0,1,0,3h-4.8C19.83,173.73,0,153.7,0,129.07S19.83,84.41,44.19,84.41a43.93,43.93,0,0,1,7.91.73c.28-32,26.15-58,57.9-58a58.14,58.14,0,0,1,55.44,41.64c.93-.05,1.78-.08,2.6-.08,28.65,0,52,23.56,52,52.51,0,28.49-22.87,52-51,52.49A1,1,0,0,1,168.72,173.73Z"/><path class="cls-5" d="M217.07,121.22c0,27-21.7,49.17-48.36,49.53l-.21,0H151.84l.09-.08c25.83-1.31,46.56-23.13,46.56-49.47,0-27.32-22-49.54-49-49.54-1.08,0-2.22,0-3.58.14a1.46,1.46,0,0,1-1.51-1.08,55.4,55.4,0,0,0-43.68-39.83A54.79,54.79,0,0,1,163,70.74a1.46,1.46,0,0,0,1.51,1.08c1.36-.1,2.5-.14,3.58-.14C195.08,71.68,217.07,93.9,217.07,121.22Z"/></g></g></svg>