<?xml version="1.0" encoding="utf-8"?>
<!-- Generator: Adobe Illustrator 22.0.0, SVG Export Plug-In . SVG Version: 6.00 Build 0)  -->
<svg version="1.1" id="Layer_1" xmlns="http://www.w3.org/2000/svg" xmlns:xlink="http://www.w3.org/1999/xlink" x="0px" y="0px"
	 viewBox="0 0 256 256" style="enable-background:new 0 0 256 256;" xml:space="preserve">
<style type="text/css">
	.st0{fill:#D7E057;}
	.st1{fill:#3A312A;}
	.st2{fill:#87796F;}
	.st3{fill:#B9C239;}
	.st4{fill:#F16C7A;}
	.st5{fill-rule:evenodd;clip-rule:evenodd;fill:#D7E057;}
	.st6{fill:#FCE8CB;}
	.st7{fill:#8AC6DD;}
	.st8{fill:#DECAAD;}
</style>
<g>
	<g id="XMLID_259_">
		<path class="st0" d="M47.976,26.486c0,0,3.408,12.659,13.222,13.246c0,0-13.1,4.525-13.321,14.202c0,0-2.579-13.572-12.925-14.059
			C34.952,39.875,47.002,38.049,47.976,26.486z"/>
		<path class="st1" d="M47.876,55.433c-0.713,0-1.335-0.506-1.473-1.217c-0.023-0.124-2.494-12.417-11.522-12.842
			c-0.771-0.037-1.388-0.651-1.428-1.421c-0.04-0.771,0.511-1.445,1.273-1.561c0.441-0.069,10.895-1.817,11.755-12.032
			c0.062-0.725,0.635-1.301,1.359-1.367c0.735-0.062,1.393,0.399,1.584,1.102c0.031,0.116,3.259,11.626,11.863,12.14
			c0.714,0.043,1.297,0.584,1.396,1.292c0.098,0.708-0.318,1.388-0.994,1.623c-0.121,0.042-12.119,4.311-12.312,12.819
			c-0.018,0.767-0.61,1.396-1.375,1.459C47.96,55.432,47.918,55.433,47.876,55.433z M40.135,39.704
			c3.878,1.969,6.23,5.746,7.587,8.876c2.026-4.021,5.941-6.787,8.949-8.427c-4.135-1.842-6.783-5.651-8.334-8.722
			C46.544,35.79,43.065,38.299,40.135,39.704z"/>
	</g>
	<g id="XMLID_246_">
		<path class="st0" d="M26.277,43.466c0,0,2.411,8.954,9.352,9.369c0,0-9.266,3.201-9.422,10.045c0,0-1.824-9.6-9.142-9.944
			C17.065,52.937,25.589,51.645,26.277,43.466z"/>
		<path class="st1" d="M26.206,64.381c-0.714,0-1.337-0.507-1.473-1.22c-0.016-0.082-1.704-8.442-7.739-8.726
			c-0.771-0.037-1.388-0.651-1.428-1.421c-0.04-0.771,0.511-1.445,1.273-1.561c0.296-0.047,7.364-1.243,7.942-8.114
			c0.062-0.726,0.636-1.303,1.361-1.368c0.725-0.056,1.392,0.399,1.582,1.102l0,0c0.021,0.079,2.227,7.919,7.993,8.264
			c0.714,0.043,1.299,0.584,1.396,1.293c0.097,0.709-0.32,1.388-0.996,1.622c-0.081,0.028-8.282,2.953-8.412,8.662
			c-0.018,0.767-0.611,1.397-1.376,1.461C26.289,64.38,26.247,64.381,26.206,64.381z M21.687,52.853
			c2.107,1.333,3.523,3.395,4.447,5.28c1.376-2.232,3.516-3.872,5.365-4.973c-2.287-1.269-3.885-3.35-4.941-5.223
			C25.384,50.224,23.543,51.812,21.687,52.853z"/>
	</g>
	<g id="XMLID_241_">
		<path class="st0" d="M26.277,16.809c0,0,2.411,8.954,9.352,9.369c0,0-9.266,3.201-9.422,10.045c0,0-1.824-9.6-9.142-9.944
			C17.065,26.279,25.589,24.988,26.277,16.809z"/>
		<path class="st1" d="M26.206,37.724c-0.714,0-1.337-0.507-1.473-1.22c-0.016-0.082-1.704-8.442-7.739-8.726
			c-0.771-0.037-1.388-0.651-1.428-1.421c-0.04-0.771,0.511-1.445,1.273-1.561c0.296-0.047,7.364-1.243,7.942-8.114
			c0.062-0.726,0.636-1.303,1.361-1.368c0.725-0.063,1.392,0.399,1.582,1.102l0,0c0.021,0.079,2.227,7.92,7.993,8.265
			c0.714,0.043,1.299,0.584,1.396,1.293c0.097,0.709-0.32,1.388-0.996,1.622c-0.081,0.028-8.282,2.952-8.412,8.662
			c-0.018,0.767-0.611,1.397-1.376,1.461C26.289,37.722,26.247,37.724,26.206,37.724z M21.687,26.196
			c2.107,1.333,3.523,3.395,4.447,5.28c1.376-2.232,3.516-3.872,5.365-4.972c-2.287-1.27-3.885-3.35-4.941-5.224
			C25.384,23.566,23.543,25.155,21.687,26.196z"/>
	</g>
	<g>
		<path class="st2" d="M24.136,138.195c3.363,56.342,50.112,100.997,107.299,100.997c59.371,0,107.5-48.129,107.5-107.5
			c0-59.37-48.129-107.5-107.5-107.5c-56.708,0-103.156,43.91-107.209,99.584L24.136,138.195z"/>
		<path class="st1" d="M131.435,240.691c-57.579,0-105.367-44.982-108.795-102.407c-0.002-0.033-0.003-0.066-0.003-0.099
			l0.089-14.419c1.999-27.497,14.191-52.945,34.336-71.757c20.245-18.906,46.658-29.318,74.373-29.318
			c60.104,0,109.001,48.897,109.001,109S191.538,240.691,131.435,240.691z M25.637,138.155
			c3.359,55.818,49.821,99.537,105.798,99.537c58.449,0,106.001-47.551,106.001-106s-47.552-106-106.001-106
			c-26.952,0-52.639,10.125-72.326,28.511c-19.59,18.294-31.447,43.042-33.387,69.682L25.637,138.155z"/>
	</g>
	<g>
		<path class="st0" d="M89.479,51.091c-29.07,15.16-48.92,45.55-48.92,80.6c0,33.27,17.88,62.37,44.56,78.2
			c12.9,7.66,27.86,12.21,43.84,12.64c0.22,0.01,0.44,0.01,0.65,0.01c0.64,0.01,1.25,0.02,1.82,0.02c0.76,0,1.58-0.01,2.45-0.03
			c15.92-0.42,30.83-4.94,43.69-12.54c26.78-15.8,44.74-44.95,44.74-78.3c0-50.19-40.69-90.87-90.88-90.87
			c-10.13,0-19.87,1.68-28.98,4.74L89.479,51.091z"/>
		<path class="st1" d="M131.429,224.061c-0.526,0-1.087-0.009-1.673-0.018l-0.169-0.002c-0.221-0.002-0.455,0-0.698-0.012
			c-15.681-0.422-31.091-4.865-44.535-12.849c-27.938-16.577-45.295-47.036-45.295-79.49c0-34.541,19.055-65.934,49.728-81.93
			c0.735-0.381,1.64-0.099,2.023,0.637c0.383,0.734,0.098,1.64-0.637,2.023c-29.678,15.477-48.114,45.852-48.114,79.27
			c0,31.4,16.793,60.871,43.826,76.91c13.006,7.723,27.914,12.021,43.114,12.43c0.226,0.01,0.426,0.01,0.61,0.01l0.193,0.003
			c1.404,0.022,2.599,0.021,4.042-0.013c15.128-0.399,29.985-4.664,42.962-12.332c27.142-16.014,44.002-45.521,44.002-77.008
			c0-49.279-40.096-89.37-89.38-89.37c-9.703,0-19.293,1.568-28.502,4.662c-0.782,0.265-1.635-0.159-1.899-0.944
			c-0.264-0.785,0.159-1.636,0.944-1.899c9.518-3.197,19.429-4.818,29.457-4.818c50.938,0,92.38,41.437,92.38,92.37
			c0,32.543-17.426,63.042-45.477,79.592c-13.414,7.927-28.771,12.335-44.413,12.748C133.031,224.051,132.2,224.061,131.429,224.061
			z"/>
	</g>
	<g>
		<path class="st1" d="M131.435,56.138c-0.975,0-1.765,0.791-1.765,1.766v3.587c0,0.975,0.79,1.766,1.765,1.766
			c0.975,0,1.766-0.79,1.766-1.766v-3.587C133.201,56.929,132.41,56.138,131.435,56.138z"/>
	</g>
	<g>
		<path class="st1" d="M213.072,137.775c0-0.975-0.79-1.765-1.766-1.765h-3.587c-0.975,0-1.766,0.79-1.766,1.765
			c0,0.975,0.79,1.766,1.766,1.766h3.587C212.281,139.541,213.072,138.75,213.072,137.775z"/>
	</g>
	<g>
		<path class="st1" d="M56.917,137.775c0-0.975-0.791-1.765-1.766-1.765h-3.587c-0.975,0-1.766,0.79-1.766,1.765
			c0,0.975,0.79,1.766,1.766,1.766h3.587C56.126,139.541,56.917,138.75,56.917,137.775z"/>
	</g>
	<g>
		<path class="st1" d="M189.161,80.049c-0.689-0.69-1.808-0.69-2.497,0l-2.536,2.536c-0.69,0.69-0.69,1.807,0,2.497
			c0.689,0.689,1.807,0.689,2.497,0l2.536-2.537C189.85,81.857,189.85,80.739,189.161,80.049z"/>
	</g>
	<g>
		<path class="st1" d="M78.742,190.468c-0.689-0.69-1.807-0.69-2.497,0l-2.536,2.536c-0.69,0.69-0.69,1.808,0,2.497
			s1.807,0.689,2.497,0l2.536-2.536C79.432,192.275,79.432,191.157,78.742,190.468z"/>
	</g>
	<g>
		<path class="st1" d="M189.161,195.501c0.69-0.689,0.69-1.808,0-2.497l-2.536-2.536c-0.689-0.69-1.807-0.69-2.497,0
			c-0.69,0.689-0.69,1.807,0,2.497l2.536,2.536C187.353,196.19,188.471,196.19,189.161,195.501z"/>
	</g>
	<g>
		<path class="st1" d="M78.742,85.083c0.69-0.69,0.69-1.807,0-2.497l-2.536-2.536c-0.689-0.69-1.807-0.69-2.497-0.001
			c-0.689,0.69-0.689,1.807,0,2.497l2.536,2.536C76.935,85.772,78.053,85.772,78.742,85.083z"/>
	</g>
	<g>
		<path class="st3" d="M131.429,42.321c-2.68,0-5.35,0.12-8,0.36c26.52,2.36,49.76,16.36,64.53,36.85c0.43,0.01,0.87,0.19,1.2,0.52
			c0.49,0.49,0.63,1.2,0.42,1.81c9.61,14.24,15.23,31.39,15.23,49.83c0,31.49-16.86,60.99-44,77.01
			c-11.38,6.73-24.21,10.83-37.4,12.01c1.85,0.16,3.72,0.27,5.59,0.32c0.23,0.01,0.42,0.01,0.61,0.01h0.19
			c1.41,0.03,2.6,0.02,4.05-0.01c15.12-0.4,29.98-4.66,42.96-12.33c27.14-16.02,44-45.52,44-77.01
			C220.809,82.411,180.709,42.321,131.429,42.321z M189.159,195.501c-0.69,0.69-1.81,0.69-2.5,0l-2.53-2.54
			c-0.69-0.69-0.69-1.8,0-2.49c0.69-0.69,1.81-0.69,2.5,0l2.53,2.53C189.849,193.691,189.849,194.811,189.159,195.501z
			 M211.309,139.541h-3.59c-0.98,0-1.77-0.79-1.77-1.77c0-0.97,0.79-1.76,1.77-1.76h3.59c0.97,0,1.76,0.79,1.76,1.76
			C213.069,138.751,212.279,139.541,211.309,139.541z"/>
	</g>
	<g>
		<path class="st4" d="M106.098,180.691h50.771c4.703,0,9.299-1.605,12.858-4.678c13.047-11.264,21.073-28.182,20.251-46.953
			c-1.327-30.297-26.054-54.807-56.36-55.885c-31.851-1.133-58.275,23.183-60.533,54.205l-0.049,7.854
			c0.96,16.078,8.409,30.403,19.761,40.403C96.476,178.877,101.196,180.691,106.098,180.691z"/>
		<path class="st1" d="M156.869,182.191h-50.771c-5.242,0-10.318-1.928-14.292-5.429c-12.111-10.668-19.31-25.385-20.267-41.439
			l0.046-7.953c2.356-32.43,29.609-56.847,62.087-55.694c31.054,1.104,56.444,26.282,57.806,57.318
			c0.811,18.508-6.76,36.06-20.77,48.154C166.941,180.4,162.026,182.191,156.869,182.191z M131.466,74.636
			c-29.908,0-54.7,22.838-56.885,52.852l-0.045,7.754c0.907,15.152,7.745,29.133,19.252,39.269c3.427,3.018,7.798,4.68,12.31,4.68
			h50.771c4.438,0,8.656-1.532,11.878-4.313c13.311-11.492,20.503-28.167,19.732-45.752c-1.292-29.484-25.414-53.402-54.915-54.452
			C132.862,74.649,132.163,74.636,131.466,74.636z"/>
	</g>
	<g>
		<path class="st2" d="M121.199,138.539l-5.145,49.992c-0.944,9.177,6.256,17.156,15.481,17.156c9.226,0,16.426-7.979,15.481-17.156
			L135.518,76.785c-0.21-2.041-1.93-3.593-3.982-3.593c-2.052,0-3.772,1.552-3.982,3.593l-4.901,47.627L121.199,138.539z"/>
		<path class="st1" d="M131.536,207.187c-4.821,0-9.438-2.053-12.668-5.632s-4.799-8.382-4.306-13.178l5.145-49.992
			c0.084-0.825,0.841-1.423,1.646-1.339c0.824,0.085,1.424,0.822,1.339,1.646l-5.145,49.992c-0.407,3.953,0.887,7.911,3.549,10.861
			c2.661,2.95,6.467,4.642,10.44,4.642s7.779-1.692,10.441-4.642c2.661-2.95,3.954-6.908,3.547-10.86L134.025,76.938
			c-0.132-1.281-1.202-2.247-2.489-2.247c-1.288,0-2.358,0.966-2.49,2.247l-4.901,47.627c-0.084,0.824-0.844,1.424-1.646,1.339
			c-0.824-0.085-1.424-0.822-1.339-1.646l4.901-47.627c0.29-2.816,2.644-4.94,5.475-4.94s5.184,2.124,5.474,4.94l11.499,111.746
			c0.494,4.795-1.075,9.598-4.305,13.177C140.975,205.134,136.357,207.187,131.536,207.187z"/>
	</g>
	<g id="XMLID_13_">
		<path class="st5" d="M125.511,186.105c2.426-3.328,7.09-4.058,10.419-1.627c3.328,2.425,4.057,7.09,1.626,10.417
			c-2.422,3.325-7.089,4.057-10.416,1.629C123.812,194.095,123.087,189.433,125.511,186.105z"/>
		<path class="st1" d="M131.516,199.458c-1.883,0-3.71-0.592-5.259-1.723c-3.987-2.909-4.865-8.522-1.957-12.514l0,0
			c1.409-1.934,3.487-3.203,5.852-3.572c2.362-0.368,4.729,0.205,6.664,1.617c1.932,1.408,3.2,3.485,3.569,5.849
			c0.37,2.364-0.204,4.731-1.617,6.665c-1.406,1.931-3.483,3.199-5.848,3.569C132.451,199.422,131.981,199.458,131.516,199.458z
			 M126.724,186.988c-1.934,2.655-1.351,6.389,1.301,8.324c1.285,0.939,2.86,1.317,4.432,1.073c1.572-0.246,2.953-1.089,3.888-2.373
			c0.941-1.287,1.323-2.861,1.077-4.433c-0.245-1.571-1.089-2.952-2.374-3.888c-1.286-0.939-2.862-1.32-4.433-1.077
			C129.043,184.859,127.661,185.703,126.724,186.988L126.724,186.988z"/>
	</g>
	<g>
		<circle class="st6" cx="188.987" cy="189.243" r="49.948"/>
		<path class="st1" d="M188.987,240.691c-28.368,0-51.448-23.08-51.448-51.448c0-28.368,23.08-51.448,51.448-51.448
			s51.448,23.08,51.448,51.448C240.436,217.612,217.356,240.691,188.987,240.691z M188.987,140.795
			c-26.715,0-48.448,21.733-48.448,48.448s21.733,48.448,48.448,48.448s48.448-21.734,48.448-48.448
			S215.702,140.795,188.987,140.795z"/>
	</g>
	<g id="XMLID_194_">
		<path class="st7" d="M212.651,199.821c0,13.069-10.595,23.664-23.664,23.664c-13.07,0-23.664-10.595-23.664-23.664
			c0-13.069,15.059-44.819,23.664-44.819C197.951,155.002,212.651,186.751,212.651,199.821z"/>
		<path class="st1" d="M188.987,224.985c-13.876,0-25.165-11.289-25.165-25.164c0-13.432,15.161-46.319,25.165-46.319
			c6.631,0,13.771,12.823,16.534,18.336c5.162,10.302,8.63,21.547,8.63,27.982C214.151,213.696,202.863,224.985,188.987,224.985z
			 M188.987,156.502c-6.836,0-22.165,29.959-22.165,43.319c0,12.221,9.943,22.164,22.165,22.164s22.164-9.943,22.164-22.164
			C211.151,187.232,196.608,156.502,188.987,156.502z"/>
	</g>
	<g>
		<path class="st8" d="M188.989,140.791c-2.72,0-5.4,0.23-8,0.67c22.92,3.82,40.45,23.8,40.45,47.78
			c0,23.99-17.53,43.96-40.45,47.78c2.6,0.44,5.28,0.67,8,0.67c26.71,0,48.45-21.73,48.45-48.45
			C237.439,162.531,215.699,140.791,188.989,140.791z"/>
	</g>
</g>
</svg>
