<?xml version="1.0" encoding="utf-8"?>
<!-- Generator: Adobe Illustrator 22.0.1, SVG Export Plug-In . SVG Version: 6.00 Build 0)  -->
<svg version="1.1" id="Layer_1" xmlns="http://www.w3.org/2000/svg" xmlns:xlink="http://www.w3.org/1999/xlink" x="0px" y="0px"
	 viewBox="0 0 256 256" style="enable-background:new 0 0 256 256;" xml:space="preserve">
<style type="text/css">
	.st0{fill:#3A312A;}
	.st1{fill:#D7E057;}
	.st2{fill:#8AC6DD;}
	.st3{fill:#6CA8BF;}
	.st4{fill:#87796F;}
	.st5{fill:#695B51;}
	.st6{fill:#FCE8CB;}
	.st7{fill-rule:evenodd;clip-rule:evenodd;fill:#FCE8CB;}
	.st8{fill:#F5978A;}
	.st9{fill:#D6DF58;}
	.st10{fill:#F8E4C8;}
	.st11{fill:#EF6D7A;}
	.st12{fill:#DECAAD;}
	.st13{fill:#8AC5DC;}
	.st14{fill:#F16C7A;}
	.st15{fill-rule:evenodd;clip-rule:evenodd;fill:#F16C7A;}
	.st16{fill-rule:evenodd;clip-rule:evenodd;fill:#D7E057;}
	.st17{fill:#FAE6CA;}
	.st18{fill:#B9C239;}
	.st19{fill:#D34E5C;}
	.st20{fill:#89C4DB;}
	.st21{fill:#ED6E7A;}
</style>
<g>
	<g>
		<g>
			<path class="st6" d="M160.612,157.618c-1.819-1.473-2.928-3.647-2.928-5.987V43.325c0-14.158-11.1-26.125-25.252-26.513
				c-14.683-0.403-26.713,11.38-26.713,25.973v108.807c0,2.365-1.12,4.56-2.957,6.049c-10.583,8.586-17.278,21.776-17.023,36.525
				c0.419,24.21,19.974,44.201,44.171,45.12c26.204,0.995,47.761-19.953,47.761-45.935
				C177.671,178.919,171.016,166.045,160.612,157.618z"/>
		</g>
	</g>
	<g>
		<g>
			<path class="st0" d="M161.556,156.452c-1.508-1.22-2.372-2.978-2.372-4.821V43.325c0-15.042-11.982-27.608-26.711-28.013
				c-7.484-0.196-14.57,2.555-19.935,7.772c-5.365,5.22-8.319,12.216-8.319,19.7v87.946c0,0.829,0.672,1.5,1.5,1.5
				s1.5-0.671,1.5-1.5V42.785c0-6.667,2.632-12.899,7.411-17.549c4.777-4.649,11.082-7.109,17.761-6.924
				c13.119,0.36,23.793,11.581,23.793,25.014V151.63c0,2.753,1.271,5.36,3.484,7.153c10.488,8.495,16.503,21.094,16.503,34.567
				c0,12.198-4.841,23.577-13.631,32.04c-8.786,8.458-20.344,12.87-32.573,12.397c-23.552-0.895-42.319-20.067-42.728-43.647
				c-0.239-13.771,5.763-26.65,16.468-35.334c2.231-1.81,3.512-4.44,3.512-7.214v-6.655c0-0.829-0.672-1.5-1.5-1.5
				s-1.5,0.671-1.5,1.5v6.655c0,1.866-0.875,3.646-2.402,4.884c-11.425,9.27-17.832,23.017-17.577,37.716
				c0.436,25.172,20.472,45.638,45.614,46.594c0.625,0.023,1.246,0.036,1.867,0.036c12.348-0.001,23.971-4.673,32.899-13.27
				c9.383-9.034,14.551-21.18,14.551-34.201C179.171,178.968,172.751,165.519,161.556,156.452z"/>
		</g>
	</g>
	<g>
		<g>
			<path class="st14" d="M144.637,169.291c-3.601-1.939-5.94-5.599-5.94-9.688V44.243c0-3.83-2.952-7.17-6.78-7.285
				c-3.962-0.119-7.211,3.057-7.211,6.992v115.652c0,4.05-2.268,7.73-5.842,9.635c-9.302,4.962-15.396,15.145-14.364,26.638
				c1.19,13.259,12.062,23.851,25.345,24.729c15.926,1.052,29.171-11.554,29.171-27.253
				C159.017,182.945,153.197,173.901,144.637,169.291z"/>
		</g>
	</g>
	<g>
		<g>
			<path class="st0" d="M145.348,167.97c-3.177-1.711-5.15-4.917-5.15-8.367V44.243c0-4.707-3.694-8.647-8.235-8.784
				c-2.314-0.071-4.515,0.781-6.177,2.395c-1.663,1.614-2.579,3.779-2.579,6.096v6.633c0,0.829,0.672,1.5,1.5,1.5s1.5-0.671,1.5-1.5
				V43.95c0-1.499,0.593-2.899,1.668-3.943c1.076-1.044,2.475-1.595,3.998-1.549c2.937,0.088,5.325,2.684,5.325,5.785v115.359
				c0,4.556,2.578,8.774,6.729,11.009c8.383,4.515,13.591,13.229,13.591,22.739c0,7.219-2.904,13.914-8.178,18.85
				c-5.269,4.933-12.152,7.385-19.395,6.907c-12.532-0.829-22.829-10.874-23.95-23.366c-0.935-10.399,4.395-20.283,13.576-25.18
				c4.093-2.183,6.636-6.382,6.636-10.959V64.75c0-0.829-0.672-1.5-1.5-1.5s-1.5,0.671-1.5,1.5v94.853
				c0,3.467-1.935,6.651-5.048,8.312c-10.246,5.466-16.194,16.494-15.152,28.096c1.253,13.95,12.749,25.166,26.741,26.091
				c0.663,0.044,1.322,0.066,1.979,0.066c7.345,0,14.265-2.722,19.663-7.775c5.8-5.43,9.127-13.099,9.127-21.041
				C160.517,182.735,154.704,173.009,145.348,167.97z"/>
		</g>
	</g>
	<g>
		<g>
			<path class="st0" d="M88.844,23.445H60.671c-0.828,0-1.5,0.671-1.5,1.5c0,0.829,0.672,1.5,1.5,1.5h28.173
				c0.828,0,1.5-0.671,1.5-1.5C90.344,24.116,89.672,23.445,88.844,23.445z"/>
		</g>
	</g>
	<g>
		<g>
			<path class="st0" d="M88.844,45.139H71.497c-0.828,0-1.5,0.671-1.5,1.5s0.672,1.5,1.5,1.5h17.347c0.828,0,1.5-0.671,1.5-1.5
				S89.672,45.139,88.844,45.139z"/>
		</g>
	</g>
	<g>
		<g>
			<path class="st0" d="M88.844,66.833H60.671c-0.828,0-1.5,0.671-1.5,1.5c0,0.829,0.672,1.5,1.5,1.5h28.173
				c0.828,0,1.5-0.671,1.5-1.5C90.344,67.504,89.672,66.833,88.844,66.833z"/>
		</g>
	</g>
	<g>
		<g>
			<path class="st0" d="M88.844,88.527H71.497c-0.828,0-1.5,0.671-1.5,1.5s0.672,1.5,1.5,1.5h17.347c0.828,0,1.5-0.671,1.5-1.5
				S89.672,88.527,88.844,88.527z"/>
		</g>
	</g>
	<g>
		<g>
			<path class="st0" d="M88.844,110.221H60.671c-0.828,0-1.5,0.671-1.5,1.5s0.672,1.5,1.5,1.5h28.173c0.828,0,1.5-0.671,1.5-1.5
				S89.672,110.221,88.844,110.221z"/>
		</g>
	</g>
	<g>
		<g>
			<path class="st0" d="M88.844,131.915H71.497c-0.828,0-1.5,0.671-1.5,1.5s0.672,1.5,1.5,1.5h17.347c0.828,0,1.5-0.671,1.5-1.5
				S89.672,131.915,88.844,131.915z"/>
		</g>
	</g>
	<g>
		<g>
			<path class="st0" d="M88.844,153.608H60.671c-0.828,0-1.5,0.671-1.5,1.5s0.672,1.5,1.5,1.5h28.173c0.828,0,1.5-0.671,1.5-1.5
				S89.672,153.608,88.844,153.608z"/>
		</g>
	</g>
	<g>
		<g>
			<path class="st12" d="M159.67,158.78c-2.22-1.79-3.49-4.4-3.49-7.15V43.33c0-13.44-10.67-24.66-23.79-25.02
				c-0.23,0-0.46-0.01-0.69-0.01c-2.79,0-5.51,0.46-8.08,1.36c9.59,3.4,16.56,12.81,16.56,23.67v0.33c0.01,0.19,0.02,0.39,0.02,0.58
				v108c0.18,2.53,1.42,4.88,3.47,6.54c8.56,6.94,14.14,16.61,15.9,27.26c0.63,2.35,0.95,4.8,0.95,7.31c0,2.45-0.32,4.87-0.93,7.2
				c-1.51,9.44-6.02,18.07-13.05,24.84c-6.41,6.17-14.29,10.18-22.83,11.72c2.04,0.37,4.13,0.6,6.26,0.68
				c12.22,0.47,23.78-3.94,32.57-12.4c8.79-8.46,13.63-19.84,13.63-32.04C176.17,179.88,170.16,167.28,159.67,158.78z"/>
		</g>
	</g>
	<g>
		<g>
			<path class="st1" d="M203.868,26.294c-0.974,11.564-13.025,13.389-13.025,13.389c10.347,0.487,12.925,14.059,12.925,14.059
				c0.221-9.677,13.321-14.202,13.321-14.202C207.277,38.954,203.868,26.294,203.868,26.294z"/>
		</g>
	</g>
	<g>
		<g>
			<path class="st0" d="M217.18,38.043c-8.604-0.514-11.832-12.024-11.863-12.14c-0.19-0.702-0.857-1.16-1.584-1.102
				c-0.725,0.066-1.298,0.642-1.359,1.367c-0.859,10.215-11.313,11.963-11.754,12.032c-0.763,0.115-1.313,0.79-1.273,1.56
				c0.04,0.77,0.657,1.384,1.428,1.421c9.028,0.425,11.499,12.718,11.522,12.842c0.138,0.711,0.76,1.217,1.473,1.217
				c0.042,0,0.084-0.002,0.126-0.005c0.765-0.064,1.357-0.693,1.375-1.459c0.193-8.508,12.19-12.777,12.312-12.819
				c0.676-0.235,1.092-0.915,0.994-1.623C218.477,38.627,217.894,38.086,217.18,38.043z M203.614,48.389
				c-1.357-3.13-3.709-6.907-7.588-8.876c2.932-1.405,6.409-3.913,8.202-8.273c1.551,3.071,4.2,6.88,8.334,8.722
				C209.556,41.602,205.641,44.368,203.614,48.389z"/>
		</g>
	</g>
	<g>
		<g>
			<path class="st1" d="M182.169,43.275c-0.689,8.179-9.212,9.471-9.212,9.471c7.318,0.344,9.142,9.944,9.142,9.944
				c0.156-6.845,9.422-10.046,9.422-10.046C184.58,52.229,182.169,43.275,182.169,43.275z"/>
		</g>
	</g>
	<g>
		<g>
			<path class="st0" d="M191.611,51.146c-5.767-0.345-7.973-8.185-7.995-8.264c-0.189-0.702-0.865-1.162-1.581-1.102
				c-0.726,0.065-1.3,0.643-1.361,1.368c-0.578,6.871-7.646,8.067-7.941,8.114c-0.763,0.115-1.313,0.79-1.273,1.56
				c0.04,0.77,0.657,1.384,1.428,1.421c6.035,0.284,7.724,8.644,7.739,8.726c0.136,0.713,0.759,1.22,1.473,1.22
				c0.041,0,0.083-0.001,0.125-0.005c0.765-0.063,1.358-0.694,1.376-1.461c0.13-5.709,8.331-8.634,8.412-8.662
				c0.676-0.234,1.093-0.913,0.996-1.622C192.91,51.731,192.325,51.19,191.611,51.146z M182.026,57.942
				c-0.924-1.885-2.34-3.947-4.447-5.28c1.855-1.041,3.697-2.63,4.87-4.917c1.058,1.874,2.655,3.955,4.942,5.224
				C185.541,54.07,183.402,55.709,182.026,57.942z"/>
		</g>
	</g>
	<g>
		<g>
			<path class="st1" d="M182.169,16.617c-0.689,8.179-9.212,9.471-9.212,9.471c7.318,0.344,9.142,9.944,9.142,9.944
				c0.156-6.845,9.422-10.045,9.422-10.045C184.58,25.571,182.169,16.617,182.169,16.617z"/>
		</g>
	</g>
	<g>
		<g>
			<path class="st0" d="M191.611,24.489c-5.767-0.345-7.973-8.186-7.995-8.265c-0.189-0.702-0.865-1.161-1.581-1.102
				c-0.726,0.065-1.3,0.643-1.361,1.368c-0.578,6.871-7.646,8.067-7.941,8.114c-0.763,0.115-1.313,0.79-1.273,1.56
				c0.04,0.77,0.657,1.384,1.428,1.421c6.035,0.284,7.724,8.644,7.739,8.726c0.136,0.713,0.759,1.22,1.473,1.22
				c0.041,0,0.083-0.001,0.125-0.005c0.765-0.063,1.358-0.694,1.376-1.461c0.13-5.71,8.331-8.634,8.412-8.662
				c0.676-0.234,1.093-0.913,0.996-1.622C192.91,25.074,192.325,24.532,191.611,24.489z M182.026,31.284
				c-0.924-1.885-2.34-3.947-4.447-5.28c1.855-1.041,3.697-2.63,4.87-4.916c1.058,1.874,2.655,3.954,4.942,5.224
				C185.542,27.413,183.402,29.052,182.026,31.284z"/>
		</g>
	</g>
</g>
</svg>
