<?xml version="1.0" encoding="utf-8"?>
<!-- Generator: Adobe Illustrator 22.0.1, SVG Export Plug-In . SVG Version: 6.00 Build 0)  -->
<svg version="1.1" id="Layer_1" xmlns="http://www.w3.org/2000/svg" xmlns:xlink="http://www.w3.org/1999/xlink" x="0px" y="0px"
	 viewBox="0 0 256 256" style="enable-background:new 0 0 256 256;" xml:space="preserve">
<style type="text/css">
	.st0{fill:#3A312A;}
	.st1{fill:#D7E057;}
	.st2{fill:#8AC6DD;}
	.st3{fill:#6CA8BF;}
	.st4{fill:#87796F;}
	.st5{fill:#695B51;}
	.st6{fill:#FCE8CB;}
	.st7{fill-rule:evenodd;clip-rule:evenodd;fill:#FCE8CB;}
	.st8{fill:#F5978A;}
	.st9{fill:#D6DF58;}
	.st10{fill:#F8E4C8;}
	.st11{fill:#EF6D7A;}
	.st12{fill:#DECAAD;}
	.st13{fill:#8AC5DC;}
	.st14{fill:#F16C7A;}
	.st15{fill-rule:evenodd;clip-rule:evenodd;fill:#F16C7A;}
	.st16{fill-rule:evenodd;clip-rule:evenodd;fill:#D7E057;}
	.st17{fill:#FAE6CA;}
	.st18{fill:#B9C239;}
	.st19{fill:#D34E5C;}
	.st20{fill:#89C4DB;}
	.st21{fill:#ED6E7A;}
</style>
<g>
	<g>
		<g>
			<path class="st9" d="M47.911,38.449c-0.974,11.564-13.024,13.389-13.024,13.389c10.347,0.487,12.925,14.059,12.925,14.059
				c0.221-9.677,13.321-14.202,13.321-14.202C51.319,51.108,47.911,38.449,47.911,38.449z"/>
		</g>
	</g>
	<g>
		<g>
			<path class="st0" d="M61.223,50.197c-8.604-0.514-11.832-12.024-11.863-12.14c-0.19-0.702-0.848-1.162-1.584-1.102
				c-0.725,0.066-1.298,0.642-1.359,1.367c-0.859,10.215-11.313,11.963-11.754,12.032c-0.763,0.115-1.313,0.79-1.273,1.561
				c0.04,0.77,0.657,1.384,1.428,1.421c9.027,0.425,11.498,12.718,11.521,12.842c0.138,0.711,0.76,1.217,1.473,1.217
				c0.042,0,0.084-0.001,0.126-0.005c0.764-0.064,1.357-0.693,1.375-1.459c0.194-8.508,12.191-12.777,12.313-12.819
				c0.676-0.235,1.092-0.915,0.994-1.623C62.519,50.781,61.936,50.24,61.223,50.197z M47.656,60.543
				c-1.356-3.131-3.708-6.908-7.586-8.877c2.931-1.404,6.408-3.913,8.201-8.272c1.551,3.071,4.2,6.88,8.334,8.722
				C53.599,53.756,49.683,56.522,47.656,60.543z"/>
		</g>
	</g>
	<g>
		<g>
			<path class="st9" d="M26.212,55.429C25.524,63.608,17,64.899,17,64.899c7.318,0.344,9.142,9.944,9.142,9.944
				c0.156-6.844,9.422-10.045,9.422-10.045C28.623,64.383,26.212,55.429,26.212,55.429z"/>
		</g>
	</g>
	<g>
		<g>
			<path class="st0" d="M35.654,63.301c-5.767-0.345-7.972-8.185-7.993-8.264c-0.19-0.702-0.865-1.164-1.582-1.102
				c-0.726,0.065-1.3,0.642-1.361,1.368c-0.579,6.871-7.646,8.066-7.942,8.113c-0.763,0.115-1.314,0.79-1.273,1.561
				c0.04,0.77,0.657,1.384,1.428,1.421c6.035,0.284,7.724,8.644,7.739,8.726c0.136,0.712,0.759,1.22,1.473,1.22
				c0.041,0,0.083-0.001,0.125-0.005c0.765-0.063,1.358-0.694,1.376-1.461c0.13-5.709,8.331-8.634,8.412-8.662
				c0.676-0.234,1.093-0.913,0.996-1.622C36.953,63.885,36.368,63.344,35.654,63.301z M26.069,70.096
				c-0.924-1.886-2.34-3.947-4.447-5.28c1.855-1.042,3.697-2.63,4.871-4.917c1.057,1.874,2.654,3.955,4.941,5.224
				C29.584,66.225,27.445,67.864,26.069,70.096z"/>
		</g>
	</g>
	<g>
		<g>
			<path class="st9" d="M26.212,28.771C25.524,36.951,17,38.242,17,38.242c7.318,0.344,9.142,9.944,9.142,9.944
				c0.156-6.845,9.422-10.045,9.422-10.045C28.623,37.726,26.212,28.771,26.212,28.771z"/>
		</g>
	</g>
	<g>
		<g>
			<path class="st0" d="M35.654,36.644c-5.767-0.345-7.972-8.186-7.993-8.265c-0.19-0.702-0.865-1.162-1.582-1.102
				c-0.726,0.065-1.3,0.642-1.361,1.368c-0.579,6.871-7.646,8.067-7.942,8.114c-0.763,0.115-1.314,0.79-1.273,1.561
				c0.04,0.77,0.657,1.384,1.428,1.421c6.035,0.284,7.724,8.644,7.739,8.726c0.136,0.713,0.759,1.22,1.473,1.22
				c0.041,0,0.083-0.001,0.125-0.005c0.765-0.063,1.358-0.694,1.376-1.461c0.13-5.709,8.331-8.634,8.412-8.662
				c0.676-0.234,1.093-0.913,0.996-1.622C36.953,37.228,36.368,36.687,35.654,36.644z M26.069,43.438
				c-0.924-1.885-2.34-3.947-4.447-5.28c1.855-1.041,3.697-2.63,4.871-4.917c1.057,1.874,2.654,3.955,4.941,5.224
				C29.585,39.567,27.445,41.206,26.069,43.438z"/>
		</g>
	</g>
	<g>
		<g>
			<path class="st10" d="M128,103.229c-61.58,0-111.5,56.5-111.5,62c0,2.814,13.072,18.978,34.082,34.094l10.913,7.265
				c18.567,11.384,41.58,20.641,66.505,20.641c61.58,0,111.5-56.5,111.5-62S189.58,103.229,128,103.229z"/>
		</g>
	</g>
	<g>
		<g>
			<path class="st0" d="M207.73,130.957c-18.163-13.334-46.74-29.229-79.73-29.229s-61.567,15.895-79.731,29.229
				C28.971,145.125,15,161.263,15,165.229c0,4.068,14.903,21.064,34.706,35.312c0.671,0.484,1.61,0.331,2.094-0.342
				c0.483-0.672,0.331-1.61-0.342-2.094c-20.693-14.888-33.113-30.471-33.46-32.83c0.722-5.104,48.913-60.547,110.002-60.547
				s109.28,55.442,110.002,60.453c-0.722,5.104-48.913,60.547-110.002,60.547c-21.51,0-43.622-6.87-65.721-20.42
				c-0.707-0.433-1.63-0.211-2.063,0.495c-0.434,0.707-0.212,1.63,0.494,2.063c22.578,13.843,45.217,20.862,67.289,20.862
				c32.99,0,61.567-15.895,79.73-29.229c19.299-14.168,33.27-30.306,33.27-34.271S227.029,145.125,207.73,130.957z"/>
		</g>
	</g>
	<g>
		<g>
			<circle class="st11" cx="128" cy="165.229" r="49.6"/>
		</g>
	</g>
	<g>
		<g>
			<path class="st0" d="M128,114.128c-28.177,0-51.1,22.923-51.1,51.1s22.923,51.1,51.1,51.1c28.177,0,51.1-22.923,51.1-51.1
				S156.177,114.128,128,114.128z M128,213.329c-26.523,0-48.1-21.578-48.1-48.1s21.577-48.1,48.1-48.1
				c26.522,0,48.1,21.578,48.1,48.1S154.522,213.329,128,213.329z"/>
		</g>
	</g>
	<g>
		<g>
			<path class="st4" d="M128,135.356c-3.878,0-7.58,0.747-10.98,2.092l-10.841,7.39c-4.991,5.339-8.052,12.506-8.052,20.391
				c0,16.498,13.374,29.873,29.873,29.873c16.498,0,29.873-13.375,29.873-29.873S144.498,135.356,128,135.356z"/>
		</g>
	</g>
	<g>
		<g>
			<path class="st0" d="M128,133.856c-3.967,0-7.846,0.739-11.531,2.197c-0.771,0.305-1.148,1.176-0.843,1.947
				c0.304,0.771,1.179,1.146,1.946,0.843c3.332-1.318,6.841-1.987,10.428-1.987c15.645,0,28.373,12.728,28.373,28.373
				S143.645,193.601,128,193.601c-15.644,0-28.373-12.728-28.373-28.373c0-7.214,2.716-14.092,7.647-19.367
				c0.565-0.605,0.534-1.554-0.071-2.12c-0.604-0.565-1.555-0.535-2.12,0.071c-5.453,5.833-8.456,13.438-8.456,21.416
				c0,17.299,14.074,31.373,31.373,31.373s31.373-14.074,31.373-31.373S145.299,133.856,128,133.856z"/>
		</g>
	</g>
	<g>
		<g>
			<circle class="st10" cx="148" cy="144.229" r="11.5"/>
		</g>
	</g>
	<g>
		<g>
			<path class="st0" d="M148,131.229c-7.168,0-13,5.832-13,13s5.832,13,13,13s13-5.832,13-13S155.168,131.229,148,131.229z
				 M148,154.229c-5.514,0-10-4.486-10-10s4.486-10,10-10s10,4.486,10,10S153.514,154.229,148,154.229z"/>
		</g>
	</g>
	<g>
		<g>
			<path class="st0" d="M239.098,93.468c-0.665-0.496-1.603-0.36-2.1,0.305l-29.2,39.12c-0.495,0.664-0.359,1.604,0.305,2.1
				c0.27,0.201,0.584,0.298,0.896,0.298c0.457,0,0.908-0.208,1.203-0.603l29.2-39.12C239.897,94.903,239.762,93.963,239.098,93.468z
				"/>
		</g>
	</g>
	<g>
		<g>
			<path class="st0" d="M189.038,69.936c-0.762-0.317-1.643,0.042-1.962,0.806l-17.09,40.91c-0.319,0.764,0.041,1.643,0.806,1.962
				c0.188,0.079,0.385,0.116,0.577,0.116c0.587,0,1.145-0.347,1.385-0.922l17.09-40.91
				C190.163,71.134,189.803,70.255,189.038,69.936z"/>
		</g>
	</g>
	<g>
		<g>
			<path class="st0" d="M128,59.46c-0.828,0-1.5,0.671-1.5,1.5v42.27c0,0.829,0.672,1.5,1.5,1.5s1.5-0.671,1.5-1.5V60.96
				C129.5,60.131,128.828,59.46,128,59.46z"/>
		</g>
	</g>
	<g>
		<g>
			<path class="st12" d="M208.351,135.12c-0.08-0.04-0.17-0.07-0.25-0.13c-0.1-0.07-0.19-0.16-0.26-0.26
				c-10.18-7.7-22.52-15.36-36.39-21.01c-0.03,0-0.05,0.01-0.08,0.01c-0.19,0-0.39-0.04-0.58-0.12c-0.21-0.08-0.38-0.21-0.52-0.37
				c-12.96-5.14-27.22-8.51-42.25-8.51c-0.01,0-0.01,0-0.02,0c-0.01,0-0.01,0-0.02,0c-2.52,0-5.01,0.09-7.48,0.28
				c12.29,0.9,23.98,3.95,34.77,8.23c0.14,0.16,0.31,0.29,0.52,0.37c0.19,0.08,0.39,0.12,0.58,0.12c0.03,0,0.05-0.01,0.08-0.01
				c13.87,5.65,26.21,13.31,36.39,21.01c0.07,0.1,0.16,0.19,0.26,0.26c0.08,0.06,0.17,0.09,0.25,0.13
				c18.06,13.77,29.17,27.55,29.64,30.11c-0.96,5.17-45.18,56.03-102.5,60.22c2.48,0.19,4.98,0.28,7.51,0.28
				c60.91,0,108.99-55.11,109.99-60.5C237.52,162.67,226.41,148.89,208.351,135.12z"/>
		</g>
	</g>
	<g>
		<g>
			<path class="st0" d="M48.223,132.893l-29.21-39.12c-0.496-0.664-1.436-0.798-2.1-0.305c-0.664,0.496-0.8,1.436-0.305,2.1
				l29.21,39.12c0.295,0.395,0.746,0.603,1.203,0.603c0.313,0,0.627-0.097,0.897-0.298
				C48.582,134.496,48.718,133.557,48.223,132.893z"/>
		</g>
	</g>
	<g>
		<g>
			<path class="st0" d="M86.034,111.652l-17.09-40.92c-0.318-0.764-1.197-1.125-1.962-0.806c-0.765,0.319-1.125,1.198-0.806,1.962
				l17.09,40.92c0.24,0.576,0.797,0.922,1.385,0.922c0.192,0,0.389-0.038,0.577-0.116C85.993,113.295,86.353,112.417,86.034,111.652
				z"/>
		</g>
	</g>
</g>
</svg>
