<?xml version="1.0" encoding="utf-8"?>
<!-- Generator: Adobe Illustrator 22.0.1, SVG Export Plug-In . SVG Version: 6.00 Build 0)  -->
<svg version="1.1" id="Layer_1" xmlns="http://www.w3.org/2000/svg" xmlns:xlink="http://www.w3.org/1999/xlink" x="0px" y="0px"
	 viewBox="0 0 256 256" style="enable-background:new 0 0 256 256;" xml:space="preserve">
<style type="text/css">
	.st0{fill:#3A312A;}
	.st1{fill:#D7E057;}
	.st2{fill:#8AC6DD;}
	.st3{fill:#6CA8BF;}
	.st4{fill:#87796F;}
	.st5{fill:#695B51;}
	.st6{fill:#FCE8CB;}
	.st7{fill-rule:evenodd;clip-rule:evenodd;fill:#FCE8CB;}
	.st8{fill:#F5978A;}
	.st9{fill:#D6DF58;}
	.st10{fill:#F8E4C8;}
	.st11{fill:#EF6D7A;}
	.st12{fill:#DECAAD;}
	.st13{fill:#8AC5DC;}
	.st14{fill:#F16C7A;}
	.st15{fill-rule:evenodd;clip-rule:evenodd;fill:#F16C7A;}
	.st16{fill-rule:evenodd;clip-rule:evenodd;fill:#D7E057;}
	.st17{fill:#FAE6CA;}
	.st18{fill:#B9C239;}
	.st19{fill:#D34E5C;}
	.st20{fill:#89C4DB;}
	.st21{fill:#ED6E7A;}
</style>
<g>
	<g>
		<g>
			<path class="st0" d="M127.919,40.5c-22.249,0-43.452,8.358-59.703,23.535c-16.171,15.102-25.959,35.53-27.563,57.623
				l-0.068,11.634c2.751,46.098,41.113,82.208,87.335,82.208c48.248,0,87.5-39.252,87.5-87.5S176.167,40.5,127.919,40.5z
				 M127.919,212.5c-44.637,0-81.684-34.871-84.338-79.288l0.067-11.436C46.844,77.883,83.859,43.5,127.919,43.5
				c46.594,0,84.5,37.907,84.5,84.5S174.513,212.5,127.919,212.5z"/>
		</g>
	</g>
	<g>
		<g>
			<path class="st9" d="M47.911,26.198c-0.974,11.564-13.025,13.389-13.025,13.389c10.347,0.487,12.925,14.059,12.925,14.059
				c0.221-9.677,13.321-14.202,13.321-14.202C51.319,38.858,47.911,26.198,47.911,26.198z"/>
		</g>
	</g>
	<g>
		<g>
			<path class="st0" d="M61.223,37.947c-8.604-0.514-11.832-12.024-11.863-12.14c-0.19-0.702-0.855-1.158-1.584-1.102
				c-0.725,0.066-1.298,0.642-1.359,1.367c-0.859,10.215-11.313,11.963-11.754,12.032c-0.763,0.115-1.313,0.79-1.273,1.561
				c0.04,0.77,0.657,1.384,1.428,1.421c9.027,0.425,11.498,12.718,11.521,12.842c0.138,0.711,0.76,1.217,1.473,1.217
				c0.042,0,0.084-0.001,0.126-0.005c0.764-0.064,1.357-0.693,1.375-1.459c0.194-8.508,12.191-12.777,12.313-12.819
				c0.676-0.235,1.092-0.915,0.994-1.623C62.52,38.531,61.937,37.99,61.223,37.947z M47.656,48.293
				c-1.356-3.131-3.708-6.908-7.586-8.877c2.931-1.404,6.408-3.913,8.201-8.272c1.551,3.071,4.2,6.88,8.334,8.722
				C53.599,41.506,49.683,44.272,47.656,48.293z"/>
		</g>
	</g>
	<g>
		<g>
			<path class="st9" d="M26.213,43.179C25.524,51.358,17,52.649,17,52.649c7.318,0.344,9.142,9.944,9.142,9.944
				c0.156-6.844,9.422-10.045,9.422-10.045C28.623,52.133,26.213,43.179,26.213,43.179z"/>
		</g>
	</g>
	<g>
		<g>
			<path class="st0" d="M35.654,51.051c-5.767-0.345-7.972-8.185-7.993-8.264c-0.19-0.702-0.865-1.16-1.582-1.102
				c-0.726,0.065-1.3,0.642-1.361,1.368c-0.579,6.87-7.646,8.066-7.942,8.113c-0.763,0.115-1.313,0.79-1.273,1.561
				c0.04,0.77,0.657,1.384,1.428,1.421c6.035,0.284,7.724,8.644,7.739,8.726c0.136,0.712,0.759,1.22,1.473,1.22
				c0.041,0,0.083-0.001,0.125-0.005c0.765-0.063,1.358-0.694,1.376-1.461c0.13-5.709,8.331-8.634,8.412-8.662
				c0.676-0.234,1.093-0.913,0.996-1.622C36.953,51.635,36.368,51.094,35.654,51.051z M26.069,57.846
				c-0.924-1.886-2.34-3.947-4.447-5.28c1.855-1.041,3.697-2.629,4.871-4.916c1.057,1.874,2.654,3.955,4.941,5.224
				C29.584,53.975,27.445,55.614,26.069,57.846z"/>
		</g>
	</g>
	<g>
		<g>
			<path class="st9" d="M26.213,16.521C25.524,24.701,17,25.992,17,25.992c7.318,0.344,9.142,9.944,9.142,9.944
				c0.156-6.845,9.422-10.045,9.422-10.045C28.623,25.476,26.213,16.521,26.213,16.521z"/>
		</g>
	</g>
	<g>
		<g>
			<path class="st0" d="M35.654,24.394c-5.767-0.345-7.972-8.186-7.993-8.265c-0.19-0.702-0.865-1.159-1.582-1.102
				c-0.726,0.065-1.3,0.642-1.361,1.368c-0.579,6.871-7.646,8.067-7.942,8.114c-0.763,0.115-1.313,0.79-1.273,1.561
				c0.04,0.77,0.657,1.384,1.428,1.421c6.035,0.284,7.724,8.644,7.739,8.726c0.136,0.713,0.759,1.22,1.473,1.22
				c0.041,0,0.083-0.001,0.125-0.005c0.765-0.063,1.358-0.694,1.376-1.461c0.13-5.709,8.331-8.634,8.412-8.662
				c0.676-0.234,1.093-0.913,0.996-1.622C36.953,24.978,36.368,24.437,35.654,24.394z M26.069,31.188
				c-0.924-1.885-2.34-3.947-4.447-5.28c1.855-1.041,3.697-2.63,4.871-4.917c1.057,1.874,2.654,3.955,4.941,5.224
				C29.585,27.317,27.445,28.956,26.069,31.188z"/>
		</g>
	</g>
	<g>
		<g>
			<path class="st11" d="M133.049,16c-19.054,0-34.5,7.507-34.5,33.099c0,25.592,0.946,67.901,20,67.901c19.054,0,4-22.5,31-57.5
				C167.357,36.416,152.103,16,133.049,16z"/>
		</g>
	</g>
	<g>
		<g>
			<path class="st0" d="M156.51,28.516c-4.186-8.514-13.395-14.016-23.461-14.016c-23.888,0-36,11.641-36,34.599
				c0,22.526,0,69.401,21.5,69.401c10.639,0,11.943-6.548,13.917-16.46c2.033-10.206,4.817-24.184,18.271-41.624
				C159.064,49.621,161.168,37.994,156.51,28.516z M148.361,58.584c-13.884,17.997-16.865,32.965-18.838,42.87
				c-1.921,9.644-2.797,14.046-10.975,14.046c-18.5,0-18.5-46.531-18.5-66.401c0-21.263,10.794-31.599,33-31.599
				c8.932,0,17.084,4.843,20.769,12.339C157.952,38.251,155.964,48.729,148.361,58.584z"/>
		</g>
	</g>
	<g>
		<g>
			<path class="st11" d="M137.451,139c-19.054,0-4,22.5-31,57.5c-17.808,23.084-2.554,43.5,16.5,43.5
				c19.054,0,34.5-7.507,34.5-33.099C157.451,181.309,156.505,139,137.451,139z"/>
		</g>
	</g>
	<g>
		<g>
			<path class="st0" d="M137.451,137.5c-10.639,0-11.943,6.548-13.917,16.46c-2.033,10.206-4.817,24.184-18.271,41.624
				c-8.328,10.795-10.432,22.422-5.773,31.9c4.186,8.514,13.395,14.016,23.461,14.016c23.888,0,36-11.641,36-34.599
				C158.951,184.375,158.951,137.5,137.451,137.5z M122.951,238.5c-8.932,0-17.084-4.843-20.769-12.339
				c-4.135-8.413-2.146-18.89,5.456-28.745c13.884-17.997,16.865-32.965,18.838-42.87c1.921-9.644,2.797-14.046,10.975-14.046
				c18.5,0,18.5,46.531,18.5,66.401C155.951,228.164,145.157,238.5,122.951,238.5z"/>
		</g>
	</g>
	<g>
		<g>
			<path class="st11" d="M206.901,98.549c-7.372,0-16.131,0.08-24.866,0.647l-13.094,1.294C152.544,102.786,139,107.769,139,118.549
				c0,19.054,22.5,4,57.5,31c23.084,17.808,43.5,2.554,43.5-16.5C240,113.995,232.493,98.549,206.901,98.549z"/>
		</g>
	</g>
	<g>
		<g>
			<path class="st0" d="M206.9,97.049c-7.395,0-16.143,0.077-24.962,0.649c-0.827,0.054-1.454,0.768-1.4,1.594
				s0.794,1.446,1.594,1.4c8.735-0.567,17.423-0.644,24.769-0.644c21.264,0,31.6,10.794,31.6,33c0,8.932-4.844,17.084-12.339,20.768
				c-8.412,4.137-18.89,2.146-28.745-5.456c-17.996-13.883-32.965-16.865-42.87-18.837c-9.645-1.921-14.046-2.798-14.046-10.975
				c0-8.335,9.639-13.912,28.648-16.574c0.82-0.115,1.393-0.873,1.277-1.693c-0.114-0.821-0.881-1.396-1.693-1.277
				c-21.017,2.942-31.232,9.336-31.232,19.544c0,10.639,6.548,11.943,16.46,13.917c10.206,2.033,24.184,4.817,41.624,18.271
				c7.024,5.419,14.4,8.203,21.309,8.203c3.708,0,7.281-0.802,10.592-2.43c8.515-4.185,14.016-13.394,14.016-23.46
				C241.5,109.162,229.859,97.049,206.9,97.049z"/>
		</g>
	</g>
	<g>
		<g>
			<path class="st11" d="M59.5,106.451c-23.084-17.808-43.5-2.554-43.5,16.5c0,19.054,7.507,34.5,33.099,34.5
				c4.684,0,9.93-0.032,15.372-0.201l13.713-0.76C98.263,154.79,117,150.131,117,137.451C117,118.397,94.5,133.451,59.5,106.451z"/>
		</g>
	</g>
	<g>
		<g>
			<path class="st0" d="M102.04,123.534c-10.206-2.033-24.184-4.817-41.624-18.271c-10.794-8.327-22.422-10.432-31.9-5.773
				c-8.515,4.185-14.016,13.394-14.016,23.46c0,23.888,11.641,36,34.6,36c4.149,0,9.651-0.023,15.419-0.201
				c0.827-0.026,1.479-0.718,1.452-1.546c-0.024-0.829-0.673-1.478-1.546-1.453c-5.726,0.177-11.197,0.2-15.325,0.2
				c-21.264,0-31.6-10.794-31.6-33c0-8.932,4.844-17.084,12.339-20.768c8.414-4.134,18.891-2.146,28.745,5.456
				c17.996,13.883,32.965,16.865,42.87,18.837c9.645,1.921,14.046,2.798,14.046,10.975c0,9.539-12.598,15.442-37.442,17.544
				c-0.825,0.07-1.438,0.795-1.368,1.621c0.07,0.826,0.794,1.439,1.622,1.368c27.043-2.289,40.188-9.005,40.188-20.534
				C118.5,126.812,111.952,125.508,102.04,123.534z"/>
		</g>
	</g>
	<g>
		<g>
			<circle class="st20" cx="128" cy="128" r="17"/>
		</g>
	</g>
	<g>
		<g>
			<path class="st0" d="M128,109.5c-10.201,0-18.5,8.299-18.5,18.5s8.299,18.5,18.5,18.5s18.5-8.299,18.5-18.5
				S138.201,109.5,128,109.5z M128,143.5c-8.547,0-15.5-6.953-15.5-15.5s6.953-15.5,15.5-15.5s15.5,6.953,15.5,15.5
				S136.547,143.5,128,143.5z"/>
		</g>
	</g>
	<g>
		<g>
			<path class="st0" d="M193.463,49.757c-0.828,0-1.5,0.671-1.5,1.5v19.713H172.25c-0.828,0-1.5,0.671-1.5,1.5s0.672,1.5,1.5,1.5
				h21.213c0.828,0,1.5-0.671,1.5-1.5V51.257C194.963,50.429,194.291,49.757,193.463,49.757z"/>
		</g>
	</g>
	<g>
		<g>
			<path class="st0" d="M84.13,183.091H62.917c-0.828,0-1.5,0.671-1.5,1.5v21.213c0,0.829,0.672,1.5,1.5,1.5s1.5-0.671,1.5-1.5
				v-19.713H84.13c0.828,0,1.5-0.671,1.5-1.5S84.958,183.091,84.13,183.091z"/>
		</g>
	</g>
	<g>
		<g>
			<path class="st19" d="M206.9,100.05c-3.51,0-7.85,0-12.63,0.1c18.98,1.11,28.23,11.9,28.23,32.9c0,8.93-4.84,17.08-12.34,20.77
				c-0.52,0.25-1.05,0.49-1.58,0.68c6.23,2.09,12.31,1.91,17.58-0.68c7.5-3.69,12.34-11.84,12.34-20.77
				C238.5,110.84,228.16,100.05,206.9,100.05z"/>
		</g>
	</g>
</g>
</svg>
